<mxfile host="app.diagrams.net" modified="2023-05-03T20:28:15.431Z" agent="Mozilla/5.0 (Windows NT 10.0; Win64; x64) AppleWebKit/537.36 (KHTML, like Gecko) Chrome/112.0.0.0 Safari/537.36" etag="1Avp5VjRwDR83j-WRclU" version="21.2.4" type="onedrive">
  <diagram name="Page-1" id="hJ1sxBlgaQZjnQtWBagJ">
    <mxGraphModel grid="1" page="1" gridSize="10" guides="1" tooltips="1" connect="1" arrows="1" fold="1" pageScale="1" pageWidth="850" pageHeight="1100" math="0" shadow="0">
      <root>
        <mxCell id="0" />
        <mxCell id="1" parent="0" />
        <mxCell id="0fqkN6X1GzrUGr9mEwJ8-6" value="Contact" style="swimlane;fontStyle=0;align=center;verticalAlign=top;childLayout=stackLayout;horizontal=1;startSize=26;horizontalStack=0;resizeParent=1;resizeLast=0;collapsible=1;marginBottom=0;rounded=0;shadow=0;strokeWidth=1;" vertex="1" parent="1">
          <mxGeometry x="436" y="230" width="160" height="110" as="geometry">
            <mxRectangle x="40" y="40" width="160" height="26" as="alternateBounds" />
          </mxGeometry>
        </mxCell>
        <mxCell id="0fqkN6X1GzrUGr9mEwJ8-7" value="- Name : String" style="text;align=left;verticalAlign=top;spacingLeft=4;spacingRight=4;overflow=hidden;rotatable=0;points=[[0,0.5],[1,0.5]];portConstraint=eastwest;" vertex="1" parent="0fqkN6X1GzrUGr9mEwJ8-6">
          <mxGeometry y="26" width="160" height="26" as="geometry" />
        </mxCell>
        <mxCell id="0fqkN6X1GzrUGr9mEwJ8-8" value="- Phone Number : String" style="text;align=left;verticalAlign=top;spacingLeft=4;spacingRight=4;overflow=hidden;rotatable=0;points=[[0,0.5],[1,0.5]];portConstraint=eastwest;rounded=0;shadow=0;html=0;" vertex="1" parent="0fqkN6X1GzrUGr9mEwJ8-6">
          <mxGeometry y="52" width="160" height="26" as="geometry" />
        </mxCell>
        <mxCell id="0fqkN6X1GzrUGr9mEwJ8-9" value="- Email : String" style="text;align=left;verticalAlign=top;spacingLeft=4;spacingRight=4;overflow=hidden;rotatable=0;points=[[0,0.5],[1,0.5]];portConstraint=eastwest;rounded=0;shadow=0;html=0;" vertex="1" parent="0fqkN6X1GzrUGr9mEwJ8-6">
          <mxGeometry y="78" width="160" height="26" as="geometry" />
        </mxCell>
        <mxCell id="0fqkN6X1GzrUGr9mEwJ8-10" value="Supplier Card" style="swimlane;fontStyle=0;childLayout=stackLayout;horizontal=1;startSize=26;fillColor=none;horizontalStack=0;resizeParent=1;resizeParentMax=0;resizeLast=0;collapsible=1;marginBottom=0;whiteSpace=wrap;html=1;" vertex="1" parent="1">
          <mxGeometry x="696" y="230" width="180" height="160" as="geometry">
            <mxRectangle x="40" y="200" width="110" height="30" as="alternateBounds" />
          </mxGeometry>
        </mxCell>
        <mxCell id="0fqkN6X1GzrUGr9mEwJ8-11" value="- Name : String" style="text;strokeColor=none;fillColor=none;align=left;verticalAlign=top;spacingLeft=4;spacingRight=4;overflow=hidden;rotatable=0;points=[[0,0.5],[1,0.5]];portConstraint=eastwest;whiteSpace=wrap;html=1;" vertex="1" parent="0fqkN6X1GzrUGr9mEwJ8-10">
          <mxGeometry y="26" width="180" height="26" as="geometry" />
        </mxCell>
        <mxCell id="0fqkN6X1GzrUGr9mEwJ8-12" value="- Address : String" style="text;strokeColor=none;fillColor=none;align=left;verticalAlign=top;spacingLeft=4;spacingRight=4;overflow=hidden;rotatable=0;points=[[0,0.5],[1,0.5]];portConstraint=eastwest;whiteSpace=wrap;html=1;" vertex="1" parent="0fqkN6X1GzrUGr9mEwJ8-10">
          <mxGeometry y="52" width="180" height="26" as="geometry" />
        </mxCell>
        <mxCell id="0fqkN6X1GzrUGr9mEwJ8-13" value="- Id : int&lt;br&gt;" style="text;strokeColor=none;fillColor=none;align=left;verticalAlign=top;spacingLeft=4;spacingRight=4;overflow=hidden;rotatable=0;points=[[0,0.5],[1,0.5]];portConstraint=eastwest;whiteSpace=wrap;html=1;" vertex="1" parent="0fqkN6X1GzrUGr9mEwJ8-10">
          <mxGeometry y="78" width="180" height="26" as="geometry" />
        </mxCell>
        <mxCell id="0fqkN6X1GzrUGr9mEwJ8-14" value="- Bank account : String" style="text;strokeColor=none;fillColor=none;align=left;verticalAlign=top;spacingLeft=4;spacingRight=4;overflow=hidden;rotatable=0;points=[[0,0.5],[1,0.5]];portConstraint=eastwest;whiteSpace=wrap;html=1;" vertex="1" parent="0fqkN6X1GzrUGr9mEwJ8-10">
          <mxGeometry y="104" width="180" height="26" as="geometry" />
        </mxCell>
        <mxCell id="0fqkN6X1GzrUGr9mEwJ8-15" value="- Payment way : PaymentWay" style="text;strokeColor=none;fillColor=none;align=left;verticalAlign=top;spacingLeft=4;spacingRight=4;overflow=hidden;rotatable=0;points=[[0,0.5],[1,0.5]];portConstraint=eastwest;whiteSpace=wrap;html=1;" vertex="1" parent="0fqkN6X1GzrUGr9mEwJ8-10">
          <mxGeometry y="130" width="180" height="30" as="geometry" />
        </mxCell>
        <mxCell id="0fqkN6X1GzrUGr9mEwJ8-16" value="&lt;i&gt;Supplier&lt;/i&gt;" style="swimlane;fontStyle=0;childLayout=stackLayout;horizontal=1;startSize=26;fillColor=none;horizontalStack=0;resizeParent=1;resizeParentMax=0;resizeLast=0;collapsible=1;marginBottom=0;whiteSpace=wrap;html=1;" vertex="1" parent="1">
          <mxGeometry x="596" y="460" width="210" height="78" as="geometry">
            <mxRectangle x="40" y="400" width="80" height="30" as="alternateBounds" />
          </mxGeometry>
        </mxCell>
        <mxCell id="0fqkN6X1GzrUGr9mEwJ8-17" value="- Catagories : LinkedList&amp;lt;String&amp;gt;" style="text;strokeColor=none;fillColor=none;align=left;verticalAlign=top;spacingLeft=4;spacingRight=4;overflow=hidden;rotatable=0;points=[[0,0.5],[1,0.5]];portConstraint=eastwest;whiteSpace=wrap;html=1;" vertex="1" parent="0fqkN6X1GzrUGr9mEwJ8-16">
          <mxGeometry y="26" width="210" height="26" as="geometry" />
        </mxCell>
        <mxCell id="0fqkN6X1GzrUGr9mEwJ8-18" value="- Manufacturers : LinkedList&amp;lt;String&amp;gt;" style="text;strokeColor=none;fillColor=none;align=left;verticalAlign=top;spacingLeft=4;spacingRight=4;overflow=hidden;rotatable=0;points=[[0,0.5],[1,0.5]];portConstraint=eastwest;whiteSpace=wrap;html=1;" vertex="1" parent="0fqkN6X1GzrUGr9mEwJ8-16">
          <mxGeometry y="52" width="210" height="26" as="geometry" />
        </mxCell>
        <mxCell id="0fqkN6X1GzrUGr9mEwJ8-19" value="&lt;i&gt;Supplier Delivers&lt;/i&gt;" style="swimlane;fontStyle=0;childLayout=stackLayout;horizontal=1;startSize=26;fillColor=none;horizontalStack=0;resizeParent=1;resizeParentMax=0;resizeLast=0;collapsible=1;marginBottom=0;whiteSpace=wrap;html=1;" collapsed="1" vertex="1" parent="1">
          <mxGeometry x="516" y="586" width="130" height="30" as="geometry">
            <mxRectangle x="100" y="360" width="140" height="52" as="alternateBounds" />
          </mxGeometry>
        </mxCell>
        <mxCell id="0fqkN6X1GzrUGr9mEwJ8-20" value="Supplier Not Delivers" style="swimlane;fontStyle=0;childLayout=stackLayout;horizontal=1;startSize=20;fillColor=none;horizontalStack=0;resizeParent=1;resizeParentMax=0;resizeLast=0;collapsible=1;marginBottom=0;whiteSpace=wrap;html=1;" collapsed="1" vertex="1" parent="1">
          <mxGeometry x="736" y="586" width="150" height="24" as="geometry">
            <mxRectangle x="200" y="360" width="140" height="52" as="alternateBounds" />
          </mxGeometry>
        </mxCell>
        <mxCell id="0fqkN6X1GzrUGr9mEwJ8-21" value="Supplier Delivers Regular" style="swimlane;fontStyle=0;childLayout=stackLayout;horizontal=1;startSize=26;fillColor=none;horizontalStack=0;resizeParent=1;resizeParentMax=0;resizeLast=0;collapsible=1;marginBottom=0;whiteSpace=wrap;html=1;" vertex="1" parent="1">
          <mxGeometry x="630" y="709" width="200" height="52" as="geometry">
            <mxRectangle x="200" y="480" width="180" height="30" as="alternateBounds" />
          </mxGeometry>
        </mxCell>
        <mxCell id="0fqkN6X1GzrUGr9mEwJ8-22" value="- Delivery days : LinkedList&amp;lt;Day&amp;gt;" style="text;strokeColor=none;fillColor=none;align=left;verticalAlign=top;spacingLeft=4;spacingRight=4;overflow=hidden;rotatable=0;points=[[0,0.5],[1,0.5]];portConstraint=eastwest;whiteSpace=wrap;html=1;" vertex="1" parent="0fqkN6X1GzrUGr9mEwJ8-21">
          <mxGeometry y="26" width="200" height="26" as="geometry" />
        </mxCell>
        <mxCell id="0fqkN6X1GzrUGr9mEwJ8-23" value="Supplier Delivers ERegular" style="swimlane;fontStyle=0;childLayout=stackLayout;horizontal=1;startSize=26;fillColor=none;horizontalStack=0;resizeParent=1;resizeParentMax=0;resizeLast=0;collapsible=1;marginBottom=0;whiteSpace=wrap;html=1;" vertex="1" parent="1">
          <mxGeometry x="430" y="709" width="140" height="52" as="geometry">
            <mxRectangle y="480" width="180" height="30" as="alternateBounds" />
          </mxGeometry>
        </mxCell>
        <mxCell id="0fqkN6X1GzrUGr9mEwJ8-24" value="- Days to deliver : int" style="text;strokeColor=none;fillColor=none;align=left;verticalAlign=top;spacingLeft=4;spacingRight=4;overflow=hidden;rotatable=0;points=[[0,0.5],[1,0.5]];portConstraint=eastwest;whiteSpace=wrap;html=1;" vertex="1" parent="0fqkN6X1GzrUGr9mEwJ8-23">
          <mxGeometry y="26" width="140" height="26" as="geometry" />
        </mxCell>
        <mxCell id="0fqkN6X1GzrUGr9mEwJ8-25" value="Supplier Contract" style="swimlane;fontStyle=0;childLayout=stackLayout;horizontal=1;startSize=26;fillColor=none;horizontalStack=0;resizeParent=1;resizeParentMax=0;resizeLast=0;collapsible=1;marginBottom=0;whiteSpace=wrap;html=1;" vertex="1" parent="1">
          <mxGeometry x="936" y="429" width="200" height="52" as="geometry">
            <mxRectangle x="520" y="160" width="130" height="30" as="alternateBounds" />
          </mxGeometry>
        </mxCell>
        <mxCell id="0fqkN6X1GzrUGr9mEwJ8-26" value="-&amp;nbsp; Payment Ways : PaymentWays" style="text;strokeColor=none;fillColor=none;align=left;verticalAlign=top;spacingLeft=4;spacingRight=4;overflow=hidden;rotatable=0;points=[[0,0.5],[1,0.5]];portConstraint=eastwest;whiteSpace=wrap;html=1;" vertex="1" parent="0fqkN6X1GzrUGr9mEwJ8-25">
          <mxGeometry y="26" width="200" height="26" as="geometry" />
        </mxCell>
        <mxCell id="0fqkN6X1GzrUGr9mEwJ8-27" value="&lt;i&gt;Discount&lt;/i&gt;" style="swimlane;fontStyle=0;childLayout=stackLayout;horizontal=1;startSize=26;fillColor=none;horizontalStack=0;resizeParent=1;resizeParentMax=0;resizeLast=0;collapsible=1;marginBottom=0;whiteSpace=wrap;html=1;" vertex="1" parent="1">
          <mxGeometry x="1336" y="680.3299999999999" width="140" height="52" as="geometry" />
        </mxCell>
        <mxCell id="0fqkN6X1GzrUGr9mEwJ8-28" value="- Size : double" style="text;strokeColor=none;fillColor=none;align=left;verticalAlign=top;spacingLeft=4;spacingRight=4;overflow=hidden;rotatable=0;points=[[0,0.5],[1,0.5]];portConstraint=eastwest;whiteSpace=wrap;html=1;" vertex="1" parent="0fqkN6X1GzrUGr9mEwJ8-27">
          <mxGeometry y="26" width="140" height="26" as="geometry" />
        </mxCell>
        <mxCell id="0fqkN6X1GzrUGr9mEwJ8-29" value="&lt;i&gt;Item Discount&lt;/i&gt;" style="swimlane;fontStyle=0;childLayout=stackLayout;horizontal=1;startSize=26;fillColor=none;horizontalStack=0;resizeParent=1;resizeParentMax=0;resizeLast=0;collapsible=1;marginBottom=0;whiteSpace=wrap;html=1;" vertex="1" parent="1">
          <mxGeometry x="1276" y="804.33" width="110" height="30" as="geometry" />
        </mxCell>
        <mxCell id="0fqkN6X1GzrUGr9mEwJ8-30" value="Extends" style="endArrow=block;endSize=16;endFill=0;html=1;rounded=0;entryX=0.5;entryY=1;entryDx=0;entryDy=0;" edge="1" parent="0fqkN6X1GzrUGr9mEwJ8-29" target="0fqkN6X1GzrUGr9mEwJ8-29">
          <mxGeometry width="160" relative="1" as="geometry">
            <mxPoint x="50" y="79" as="sourcePoint" />
            <mxPoint x="92" y="14.050000000000011" as="targetPoint" />
          </mxGeometry>
        </mxCell>
        <mxCell id="0fqkN6X1GzrUGr9mEwJ8-31" value="&lt;i&gt;Order Discount&lt;/i&gt;" style="swimlane;fontStyle=0;childLayout=stackLayout;horizontal=1;startSize=26;fillColor=none;horizontalStack=0;resizeParent=1;resizeParentMax=0;resizeLast=0;collapsible=1;marginBottom=0;whiteSpace=wrap;html=1;" vertex="1" parent="1">
          <mxGeometry x="1416" y="804.33" width="90" height="30" as="geometry">
            <mxRectangle x="1420" y="530" width="120" height="30" as="alternateBounds" />
          </mxGeometry>
        </mxCell>
        <mxCell id="0fqkN6X1GzrUGr9mEwJ8-32" value="Item Units Discount" style="swimlane;fontStyle=0;childLayout=stackLayout;horizontal=1;startSize=26;fillColor=none;horizontalStack=0;resizeParent=1;resizeParentMax=0;resizeLast=0;collapsible=1;marginBottom=0;whiteSpace=wrap;html=1;" vertex="1" parent="1">
          <mxGeometry x="1276" y="883.33" width="140" height="52" as="geometry" />
        </mxCell>
        <mxCell id="0fqkN6X1GzrUGr9mEwJ8-33" value="- Number of units : int" style="text;strokeColor=none;fillColor=none;align=left;verticalAlign=top;spacingLeft=4;spacingRight=4;overflow=hidden;rotatable=0;points=[[0,0.5],[1,0.5]];portConstraint=eastwest;whiteSpace=wrap;html=1;" vertex="1" parent="0fqkN6X1GzrUGr9mEwJ8-32">
          <mxGeometry y="26" width="140" height="26" as="geometry" />
        </mxCell>
        <mxCell id="0fqkN6X1GzrUGr9mEwJ8-34" value="Order Units Discount" style="swimlane;fontStyle=0;childLayout=stackLayout;horizontal=1;startSize=26;fillColor=none;horizontalStack=0;resizeParent=1;resizeParentMax=0;resizeLast=0;collapsible=1;marginBottom=0;whiteSpace=wrap;html=1;" vertex="1" parent="1">
          <mxGeometry x="1306" y="964.33" width="140" height="52" as="geometry" />
        </mxCell>
        <mxCell id="0fqkN6X1GzrUGr9mEwJ8-35" value="- Number of units: int" style="text;strokeColor=none;fillColor=none;align=left;verticalAlign=top;spacingLeft=4;spacingRight=4;overflow=hidden;rotatable=0;points=[[0,0.5],[1,0.5]];portConstraint=eastwest;whiteSpace=wrap;html=1;" vertex="1" parent="0fqkN6X1GzrUGr9mEwJ8-34">
          <mxGeometry y="26" width="140" height="26" as="geometry" />
        </mxCell>
        <mxCell id="0fqkN6X1GzrUGr9mEwJ8-36" value="Order Cost Discount" style="swimlane;fontStyle=0;childLayout=stackLayout;horizontal=1;startSize=26;fillColor=none;horizontalStack=0;resizeParent=1;resizeParentMax=0;resizeLast=0;collapsible=1;marginBottom=0;whiteSpace=wrap;html=1;" vertex="1" parent="1">
          <mxGeometry x="1506" y="964.33" width="140" height="52" as="geometry" />
        </mxCell>
        <mxCell id="0fqkN6X1GzrUGr9mEwJ8-37" value="- Cost: double" style="text;strokeColor=none;fillColor=none;align=left;verticalAlign=top;spacingLeft=4;spacingRight=4;overflow=hidden;rotatable=0;points=[[0,0.5],[1,0.5]];portConstraint=eastwest;whiteSpace=wrap;html=1;" vertex="1" parent="0fqkN6X1GzrUGr9mEwJ8-36">
          <mxGeometry y="26" width="140" height="26" as="geometry" />
        </mxCell>
        <mxCell id="0fqkN6X1GzrUGr9mEwJ8-38" value="«interface»&lt;br&gt;&lt;b&gt;Discount Type&lt;/b&gt;" style="html=1;whiteSpace=wrap;" vertex="1" parent="1">
          <mxGeometry x="1666" y="681.3299999999999" width="110" height="50" as="geometry" />
        </mxCell>
        <mxCell id="0fqkN6X1GzrUGr9mEwJ8-39" value="Percentage Discount" style="swimlane;fontStyle=0;childLayout=stackLayout;horizontal=1;startSize=26;fillColor=none;horizontalStack=0;resizeParent=1;resizeParentMax=0;resizeLast=0;collapsible=1;marginBottom=0;whiteSpace=wrap;html=1;" vertex="1" parent="1">
          <mxGeometry x="1536" y="804.33" width="140" height="30" as="geometry">
            <mxRectangle x="910" y="420" width="150" height="30" as="alternateBounds" />
          </mxGeometry>
        </mxCell>
        <mxCell id="0fqkN6X1GzrUGr9mEwJ8-40" value="Constant Discount" style="swimlane;fontStyle=0;childLayout=stackLayout;horizontal=1;startSize=26;fillColor=none;horizontalStack=0;resizeParent=1;resizeParentMax=0;resizeLast=0;collapsible=1;marginBottom=0;whiteSpace=wrap;html=1;" vertex="1" parent="1">
          <mxGeometry x="1706" y="804.33" width="140" height="30" as="geometry" />
        </mxCell>
        <mxCell id="0fqkN6X1GzrUGr9mEwJ8-41" value="Supplier Item" style="swimlane;fontStyle=0;childLayout=stackLayout;horizontal=1;startSize=26;fillColor=none;horizontalStack=0;resizeParent=1;resizeParentMax=0;resizeLast=0;collapsible=1;marginBottom=0;whiteSpace=wrap;html=1;" vertex="1" parent="1">
          <mxGeometry x="1076" y="586" width="140" height="208" as="geometry" />
        </mxCell>
        <mxCell id="0fqkN6X1GzrUGr9mEwJ8-42" value="- Catalog number: int" style="text;strokeColor=none;fillColor=none;align=left;verticalAlign=top;spacingLeft=4;spacingRight=4;overflow=hidden;rotatable=0;points=[[0,0.5],[1,0.5]];portConstraint=eastwest;whiteSpace=wrap;html=1;" vertex="1" parent="0fqkN6X1GzrUGr9mEwJ8-41">
          <mxGeometry y="26" width="140" height="26" as="geometry" />
        </mxCell>
        <mxCell id="0fqkN6X1GzrUGr9mEwJ8-43" value="- Name: String" style="text;strokeColor=none;fillColor=none;align=left;verticalAlign=top;spacingLeft=4;spacingRight=4;overflow=hidden;rotatable=0;points=[[0,0.5],[1,0.5]];portConstraint=eastwest;whiteSpace=wrap;html=1;" vertex="1" parent="0fqkN6X1GzrUGr9mEwJ8-41">
          <mxGeometry y="52" width="140" height="26" as="geometry" />
        </mxCell>
        <mxCell id="0fqkN6X1GzrUGr9mEwJ8-44" value="- Manufacturer: String" style="text;strokeColor=none;fillColor=none;align=left;verticalAlign=top;spacingLeft=4;spacingRight=4;overflow=hidden;rotatable=0;points=[[0,0.5],[1,0.5]];portConstraint=eastwest;whiteSpace=wrap;html=1;" vertex="1" parent="0fqkN6X1GzrUGr9mEwJ8-41">
          <mxGeometry y="78" width="140" height="26" as="geometry" />
        </mxCell>
        <mxCell id="0fqkN6X1GzrUGr9mEwJ8-45" value="- Catagory: String" style="text;strokeColor=none;fillColor=none;align=left;verticalAlign=top;spacingLeft=4;spacingRight=4;overflow=hidden;rotatable=0;points=[[0,0.5],[1,0.5]];portConstraint=eastwest;whiteSpace=wrap;html=1;" vertex="1" parent="0fqkN6X1GzrUGr9mEwJ8-41">
          <mxGeometry y="104" width="140" height="26" as="geometry" />
        </mxCell>
        <mxCell id="0fqkN6X1GzrUGr9mEwJ8-46" value="- Unit price: double" style="text;strokeColor=none;fillColor=none;align=left;verticalAlign=top;spacingLeft=4;spacingRight=4;overflow=hidden;rotatable=0;points=[[0,0.5],[1,0.5]];portConstraint=eastwest;whiteSpace=wrap;html=1;" vertex="1" parent="0fqkN6X1GzrUGr9mEwJ8-41">
          <mxGeometry y="130" width="140" height="26" as="geometry" />
        </mxCell>
        <mxCell id="0fqkN6X1GzrUGr9mEwJ8-47" value="- Unit Weight: double&lt;br&gt;" style="text;strokeColor=none;fillColor=none;align=left;verticalAlign=top;spacingLeft=4;spacingRight=4;overflow=hidden;rotatable=0;points=[[0,0.5],[1,0.5]];portConstraint=eastwest;whiteSpace=wrap;html=1;" vertex="1" parent="0fqkN6X1GzrUGr9mEwJ8-41">
          <mxGeometry y="156" width="140" height="26" as="geometry" />
        </mxCell>
        <mxCell id="0fqkN6X1GzrUGr9mEwJ8-48" value="- Number of units: int" style="text;strokeColor=none;fillColor=none;align=left;verticalAlign=top;spacingLeft=4;spacingRight=4;overflow=hidden;rotatable=0;points=[[0,0.5],[1,0.5]];portConstraint=eastwest;whiteSpace=wrap;html=1;" vertex="1" parent="0fqkN6X1GzrUGr9mEwJ8-41">
          <mxGeometry y="182" width="140" height="26" as="geometry" />
        </mxCell>
        <mxCell id="0fqkN6X1GzrUGr9mEwJ8-49" value="&amp;lt;&amp;lt;enum&amp;gt;&amp;gt;&lt;br&gt;Day" style="swimlane;fontStyle=0;childLayout=stackLayout;horizontal=1;startSize=26;fillColor=none;horizontalStack=0;resizeParent=1;resizeParentMax=0;resizeLast=0;collapsible=1;marginBottom=0;whiteSpace=wrap;html=1;" vertex="1" parent="1">
          <mxGeometry x="946" y="230" width="140" height="150" as="geometry" />
        </mxCell>
        <mxCell id="0fqkN6X1GzrUGr9mEwJ8-50" value="+ sunday&lt;br&gt;+monday&lt;br&gt;+tuesday&lt;br&gt;+wednsday&lt;br&gt;+thursday&lt;br&gt;+friday&lt;br&gt;+saturday&lt;br&gt;" style="text;strokeColor=none;fillColor=none;align=left;verticalAlign=top;spacingLeft=4;spacingRight=4;overflow=hidden;rotatable=0;points=[[0,0.5],[1,0.5]];portConstraint=eastwest;whiteSpace=wrap;html=1;" vertex="1" parent="0fqkN6X1GzrUGr9mEwJ8-49">
          <mxGeometry y="26" width="140" height="124" as="geometry" />
        </mxCell>
        <mxCell id="0fqkN6X1GzrUGr9mEwJ8-51" value="Order" style="swimlane;fontStyle=0;childLayout=stackLayout;horizontal=1;startSize=26;fillColor=none;horizontalStack=0;resizeParent=1;resizeParentMax=0;resizeLast=0;collapsible=1;marginBottom=0;whiteSpace=wrap;html=1;" vertex="1" parent="1">
          <mxGeometry x="746" y="950" width="150" height="194" as="geometry" />
        </mxCell>
        <mxCell id="0fqkN6X1GzrUGr9mEwJ8-52" value="- Order number: int&lt;br&gt;" style="text;strokeColor=none;fillColor=none;align=left;verticalAlign=top;spacingLeft=4;spacingRight=4;overflow=hidden;rotatable=0;points=[[0,0.5],[1,0.5]];portConstraint=eastwest;whiteSpace=wrap;html=1;" vertex="1" parent="0fqkN6X1GzrUGr9mEwJ8-51">
          <mxGeometry y="26" width="150" height="26" as="geometry" />
        </mxCell>
        <mxCell id="0fqkN6X1GzrUGr9mEwJ8-53" value="- Order date: Date" style="text;strokeColor=none;fillColor=none;align=left;verticalAlign=top;spacingLeft=4;spacingRight=4;overflow=hidden;rotatable=0;points=[[0,0.5],[1,0.5]];portConstraint=eastwest;whiteSpace=wrap;html=1;" vertex="1" parent="0fqkN6X1GzrUGr9mEwJ8-51">
          <mxGeometry y="52" width="150" height="26" as="geometry" />
        </mxCell>
        <mxCell id="0fqkN6X1GzrUGr9mEwJ8-54" value="- Cost: double" style="text;strokeColor=none;fillColor=none;align=left;verticalAlign=top;spacingLeft=4;spacingRight=4;overflow=hidden;rotatable=0;points=[[0,0.5],[1,0.5]];portConstraint=eastwest;whiteSpace=wrap;html=1;" vertex="1" parent="0fqkN6X1GzrUGr9mEwJ8-51">
          <mxGeometry y="78" width="150" height="26" as="geometry" />
        </mxCell>
        <mxCell id="0fqkN6X1GzrUGr9mEwJ8-55" value="- Branch number: int" style="text;strokeColor=none;fillColor=none;align=left;verticalAlign=top;spacingLeft=4;spacingRight=4;overflow=hidden;rotatable=0;points=[[0,0.5],[1,0.5]];portConstraint=eastwest;whiteSpace=wrap;html=1;" vertex="1" parent="0fqkN6X1GzrUGr9mEwJ8-51">
          <mxGeometry y="104" width="150" height="26" as="geometry" />
        </mxCell>
        <mxCell id="0fqkN6X1GzrUGr9mEwJ8-56" value="" style="line;strokeWidth=1;fillColor=none;align=left;verticalAlign=middle;spacingTop=-1;spacingLeft=3;spacingRight=3;rotatable=0;labelPosition=right;points=[];portConstraint=eastwest;strokeColor=inherit;" vertex="1" parent="0fqkN6X1GzrUGr9mEwJ8-51">
          <mxGeometry y="130" width="150" height="8" as="geometry" />
        </mxCell>
        <mxCell id="0fqkN6X1GzrUGr9mEwJ8-57" value="static" style="text;strokeColor=none;fillColor=none;align=left;verticalAlign=top;spacingLeft=4;spacingRight=4;overflow=hidden;rotatable=0;points=[[0,0.5],[1,0.5]];portConstraint=eastwest;whiteSpace=wrap;html=1;" vertex="1" parent="0fqkN6X1GzrUGr9mEwJ8-51">
          <mxGeometry y="138" width="150" height="26" as="geometry" />
        </mxCell>
        <mxCell id="0fqkN6X1GzrUGr9mEwJ8-58" value="- Order counter: int" style="text;strokeColor=none;fillColor=none;align=left;verticalAlign=top;spacingLeft=4;spacingRight=4;overflow=hidden;rotatable=0;points=[[0,0.5],[1,0.5]];portConstraint=eastwest;whiteSpace=wrap;html=1;" vertex="1" parent="0fqkN6X1GzrUGr9mEwJ8-51">
          <mxGeometry y="164" width="150" height="30" as="geometry" />
        </mxCell>
        <mxCell id="0fqkN6X1GzrUGr9mEwJ8-59" style="edgeStyle=orthogonalEdgeStyle;rounded=0;orthogonalLoop=1;jettySize=auto;html=1;exitX=1;exitY=0.5;exitDx=0;exitDy=0;" edge="1" parent="1" source="0fqkN6X1GzrUGr9mEwJ8-60" target="0fqkN6X1GzrUGr9mEwJ8-61">
          <mxGeometry relative="1" as="geometry">
            <Array as="points">
              <mxPoint x="1946" y="615" />
            </Array>
          </mxGeometry>
        </mxCell>
        <mxCell id="0fqkN6X1GzrUGr9mEwJ8-60" value="Discount document" style="swimlane;fontStyle=0;childLayout=stackLayout;horizontal=1;startSize=26;fillColor=none;horizontalStack=0;resizeParent=1;resizeParentMax=0;resizeLast=0;collapsible=1;marginBottom=0;whiteSpace=wrap;html=1;" vertex="1" parent="1">
          <mxGeometry x="1376" y="600" width="200" height="30" as="geometry">
            <mxRectangle x="520" y="160" width="130" height="30" as="alternateBounds" />
          </mxGeometry>
        </mxCell>
        <mxCell id="0fqkN6X1GzrUGr9mEwJ8-61" value="Discount Factory" style="swimlane;fontStyle=0;childLayout=stackLayout;horizontal=1;startSize=26;fillColor=none;horizontalStack=0;resizeParent=1;resizeParentMax=0;resizeLast=0;collapsible=1;marginBottom=0;whiteSpace=wrap;html=1;" vertex="1" parent="1">
          <mxGeometry x="1871" y="826" width="140" height="30" as="geometry" />
        </mxCell>
        <mxCell id="0fqkN6X1GzrUGr9mEwJ8-62" value="&amp;lt;&amp;lt;enum&amp;gt;&amp;gt;&lt;br&gt;Payment Way" style="swimlane;fontStyle=0;childLayout=stackLayout;horizontal=1;startSize=26;fillColor=none;horizontalStack=0;resizeParent=1;resizeParentMax=0;resizeLast=0;collapsible=1;marginBottom=0;whiteSpace=wrap;html=1;" vertex="1" parent="1">
          <mxGeometry x="1096" y="230" width="140" height="90" as="geometry" />
        </mxCell>
        <mxCell id="0fqkN6X1GzrUGr9mEwJ8-63" value="+ Direct&lt;br&gt;+ Plus 30&lt;br&gt;+ Plus 60" style="text;strokeColor=none;fillColor=none;align=left;verticalAlign=top;spacingLeft=4;spacingRight=4;overflow=hidden;rotatable=0;points=[[0,0.5],[1,0.5]];portConstraint=eastwest;whiteSpace=wrap;html=1;" vertex="1" parent="0fqkN6X1GzrUGr9mEwJ8-62">
          <mxGeometry y="26" width="140" height="64" as="geometry" />
        </mxCell>
        <mxCell id="0fqkN6X1GzrUGr9mEwJ8-64" value="Order Item" style="swimlane;fontStyle=0;childLayout=stackLayout;horizontal=1;startSize=26;fillColor=none;horizontalStack=0;resizeParent=1;resizeParentMax=0;resizeLast=0;collapsible=1;marginBottom=0;whiteSpace=wrap;html=1;" vertex="1" parent="1">
          <mxGeometry x="1056" y="950" width="140" height="104" as="geometry" />
        </mxCell>
        <mxCell id="0fqkN6X1GzrUGr9mEwJ8-65" value="- Amount: int" style="text;strokeColor=none;fillColor=none;align=left;verticalAlign=top;spacingLeft=4;spacingRight=4;overflow=hidden;rotatable=0;points=[[0,0.5],[1,0.5]];portConstraint=eastwest;whiteSpace=wrap;html=1;" vertex="1" parent="0fqkN6X1GzrUGr9mEwJ8-64">
          <mxGeometry y="26" width="140" height="26" as="geometry" />
        </mxCell>
        <mxCell id="0fqkN6X1GzrUGr9mEwJ8-66" value="- Discount value: double" style="text;strokeColor=none;fillColor=none;align=left;verticalAlign=top;spacingLeft=4;spacingRight=4;overflow=hidden;rotatable=0;points=[[0,0.5],[1,0.5]];portConstraint=eastwest;whiteSpace=wrap;html=1;" vertex="1" parent="0fqkN6X1GzrUGr9mEwJ8-64">
          <mxGeometry y="52" width="140" height="26" as="geometry" />
        </mxCell>
        <mxCell id="0fqkN6X1GzrUGr9mEwJ8-67" value="- Final price: double" style="text;strokeColor=none;fillColor=none;align=left;verticalAlign=top;spacingLeft=4;spacingRight=4;overflow=hidden;rotatable=0;points=[[0,0.5],[1,0.5]];portConstraint=eastwest;whiteSpace=wrap;html=1;" vertex="1" parent="0fqkN6X1GzrUGr9mEwJ8-64">
          <mxGeometry y="78" width="140" height="26" as="geometry" />
        </mxCell>
        <mxCell id="0fqkN6X1GzrUGr9mEwJ8-68" value="&lt;span style=&quot;font-weight: normal;&quot;&gt;Branch&lt;/span&gt;" style="swimlane;fontStyle=1;align=center;verticalAlign=top;childLayout=stackLayout;horizontal=1;startSize=26;horizontalStack=0;resizeParent=1;resizeParentMax=0;resizeLast=0;collapsible=1;marginBottom=0;whiteSpace=wrap;html=1;" vertex="1" parent="1">
          <mxGeometry x="456" y="910" width="160" height="138" as="geometry" />
        </mxCell>
        <mxCell id="0fqkN6X1GzrUGr9mEwJ8-69" value="- Branch number: int&lt;br&gt;" style="text;strokeColor=none;fillColor=none;align=left;verticalAlign=top;spacingLeft=4;spacingRight=4;overflow=hidden;rotatable=0;points=[[0,0.5],[1,0.5]];portConstraint=eastwest;whiteSpace=wrap;html=1;" vertex="1" parent="0fqkN6X1GzrUGr9mEwJ8-68">
          <mxGeometry y="26" width="160" height="26" as="geometry" />
        </mxCell>
        <mxCell id="0fqkN6X1GzrUGr9mEwJ8-70" value="- Address: String" style="text;strokeColor=none;fillColor=none;align=left;verticalAlign=top;spacingLeft=4;spacingRight=4;overflow=hidden;rotatable=0;points=[[0,0.5],[1,0.5]];portConstraint=eastwest;whiteSpace=wrap;html=1;" vertex="1" parent="0fqkN6X1GzrUGr9mEwJ8-68">
          <mxGeometry y="52" width="160" height="26" as="geometry" />
        </mxCell>
        <mxCell id="0fqkN6X1GzrUGr9mEwJ8-71" value="" style="line;strokeWidth=1;fillColor=none;align=left;verticalAlign=middle;spacingTop=-1;spacingLeft=3;spacingRight=3;rotatable=0;labelPosition=right;points=[];portConstraint=eastwest;strokeColor=inherit;" vertex="1" parent="0fqkN6X1GzrUGr9mEwJ8-68">
          <mxGeometry y="78" width="160" height="8" as="geometry" />
        </mxCell>
        <mxCell id="0fqkN6X1GzrUGr9mEwJ8-72" value="static" style="text;strokeColor=none;fillColor=none;align=left;verticalAlign=top;spacingLeft=4;spacingRight=4;overflow=hidden;rotatable=0;points=[[0,0.5],[1,0.5]];portConstraint=eastwest;whiteSpace=wrap;html=1;" vertex="1" parent="0fqkN6X1GzrUGr9mEwJ8-68">
          <mxGeometry y="86" width="160" height="26" as="geometry" />
        </mxCell>
        <mxCell id="0fqkN6X1GzrUGr9mEwJ8-73" value="- Branch counter: int" style="text;strokeColor=none;fillColor=none;align=left;verticalAlign=top;spacingLeft=4;spacingRight=4;overflow=hidden;rotatable=0;points=[[0,0.5],[1,0.5]];portConstraint=eastwest;whiteSpace=wrap;html=1;" vertex="1" parent="0fqkN6X1GzrUGr9mEwJ8-68">
          <mxGeometry y="112" width="160" height="26" as="geometry" />
        </mxCell>
        <mxCell id="0fqkN6X1GzrUGr9mEwJ8-74" value="" style="endArrow=classic;html=1;rounded=0;exitX=0;exitY=0.5;exitDx=0;exitDy=0;" edge="1" parent="1" source="0fqkN6X1GzrUGr9mEwJ8-13">
          <mxGeometry relative="1" as="geometry">
            <mxPoint x="666" y="320" as="sourcePoint" />
            <mxPoint x="596" y="321" as="targetPoint" />
            <Array as="points">
              <mxPoint x="656" y="321" />
              <mxPoint x="616" y="321" />
            </Array>
          </mxGeometry>
        </mxCell>
        <mxCell id="0fqkN6X1GzrUGr9mEwJ8-75" value="1, *" style="edgeLabel;resizable=0;html=1;align=right;verticalAlign=bottom;" connectable="0" vertex="1" parent="0fqkN6X1GzrUGr9mEwJ8-74">
          <mxGeometry x="1" relative="1" as="geometry">
            <mxPoint x="30" y="-2" as="offset" />
          </mxGeometry>
        </mxCell>
        <mxCell id="0fqkN6X1GzrUGr9mEwJ8-76" value="" style="endArrow=classic;html=1;rounded=0;exitX=0.5;exitY=0;exitDx=0;exitDy=0;" edge="1" parent="1" source="0fqkN6X1GzrUGr9mEwJ8-16">
          <mxGeometry relative="1" as="geometry">
            <mxPoint x="726" y="410" as="sourcePoint" />
            <mxPoint x="786" y="391" as="targetPoint" />
            <Array as="points" />
          </mxGeometry>
        </mxCell>
        <mxCell id="0fqkN6X1GzrUGr9mEwJ8-77" value="1" style="edgeLabel;resizable=0;html=1;align=right;verticalAlign=bottom;" connectable="0" vertex="1" parent="0fqkN6X1GzrUGr9mEwJ8-76">
          <mxGeometry x="1" relative="1" as="geometry">
            <mxPoint x="-30" y="19" as="offset" />
          </mxGeometry>
        </mxCell>
        <mxCell id="0fqkN6X1GzrUGr9mEwJ8-78" value="1" style="edgeLabel;resizable=0;html=1;align=right;verticalAlign=bottom;" connectable="0" vertex="1" parent="0fqkN6X1GzrUGr9mEwJ8-76">
          <mxGeometry x="1" relative="1" as="geometry">
            <mxPoint x="-80" y="59" as="offset" />
          </mxGeometry>
        </mxCell>
        <mxCell id="0fqkN6X1GzrUGr9mEwJ8-79" value="1" style="edgeLabel;resizable=0;html=1;align=right;verticalAlign=bottom;" connectable="0" vertex="1" parent="0fqkN6X1GzrUGr9mEwJ8-76">
          <mxGeometry x="1" relative="1" as="geometry">
            <mxPoint x="30" y="89" as="offset" />
          </mxGeometry>
        </mxCell>
        <mxCell id="0fqkN6X1GzrUGr9mEwJ8-80" value="1" style="edgeLabel;resizable=0;html=1;align=right;verticalAlign=bottom;" connectable="0" vertex="1" parent="0fqkN6X1GzrUGr9mEwJ8-76">
          <mxGeometry x="1" relative="1" as="geometry">
            <mxPoint x="130" y="69" as="offset" />
          </mxGeometry>
        </mxCell>
        <mxCell id="0fqkN6X1GzrUGr9mEwJ8-81" value="1" style="edgeLabel;resizable=0;html=1;align=right;verticalAlign=bottom;" connectable="0" vertex="1" parent="0fqkN6X1GzrUGr9mEwJ8-76">
          <mxGeometry x="1" relative="1" as="geometry">
            <mxPoint x="60" y="119" as="offset" />
          </mxGeometry>
        </mxCell>
        <mxCell id="0fqkN6X1GzrUGr9mEwJ8-82" value="*" style="edgeLabel;resizable=0;html=1;align=right;verticalAlign=bottom;" connectable="0" vertex="1" parent="0fqkN6X1GzrUGr9mEwJ8-76">
          <mxGeometry x="1" relative="1" as="geometry">
            <mxPoint x="270" y="199" as="offset" />
          </mxGeometry>
        </mxCell>
        <mxCell id="0fqkN6X1GzrUGr9mEwJ8-83" value="1" style="edgeLabel;resizable=0;html=1;align=right;verticalAlign=bottom;" connectable="0" vertex="1" parent="0fqkN6X1GzrUGr9mEwJ8-76">
          <mxGeometry x="1" relative="1" as="geometry">
            <mxPoint x="290" y="119" as="offset" />
          </mxGeometry>
        </mxCell>
        <mxCell id="0fqkN6X1GzrUGr9mEwJ8-84" value="*" style="edgeLabel;resizable=0;html=1;align=right;verticalAlign=bottom;" connectable="0" vertex="1" parent="0fqkN6X1GzrUGr9mEwJ8-76">
          <mxGeometry x="1" relative="1" as="geometry">
            <mxPoint x="80" y="549" as="offset" />
          </mxGeometry>
        </mxCell>
        <mxCell id="0fqkN6X1GzrUGr9mEwJ8-85" value="1" style="edgeLabel;resizable=0;html=1;align=right;verticalAlign=bottom;" connectable="0" vertex="1" parent="0fqkN6X1GzrUGr9mEwJ8-76">
          <mxGeometry x="1" relative="1" as="geometry">
            <mxPoint x="40" y="139" as="offset" />
          </mxGeometry>
        </mxCell>
        <mxCell id="0fqkN6X1GzrUGr9mEwJ8-86" value="*" style="edgeLabel;resizable=0;html=1;align=right;verticalAlign=bottom;" connectable="0" vertex="1" parent="0fqkN6X1GzrUGr9mEwJ8-76">
          <mxGeometry x="1" relative="1" as="geometry">
            <mxPoint x="-50" y="569" as="offset" />
          </mxGeometry>
        </mxCell>
        <mxCell id="0fqkN6X1GzrUGr9mEwJ8-87" value="1" style="edgeLabel;resizable=0;html=1;align=right;verticalAlign=bottom;" connectable="0" vertex="1" parent="0fqkN6X1GzrUGr9mEwJ8-76">
          <mxGeometry x="1" relative="1" as="geometry">
            <mxPoint x="-150" y="539" as="offset" />
          </mxGeometry>
        </mxCell>
        <mxCell id="0fqkN6X1GzrUGr9mEwJ8-88" value="1, *" style="edgeLabel;resizable=0;html=1;align=right;verticalAlign=bottom;" connectable="0" vertex="1" parent="0fqkN6X1GzrUGr9mEwJ8-76">
          <mxGeometry x="1" relative="1" as="geometry">
            <mxPoint x="250" y="599" as="offset" />
          </mxGeometry>
        </mxCell>
        <mxCell id="0fqkN6X1GzrUGr9mEwJ8-89" value="1" style="edgeLabel;resizable=0;html=1;align=right;verticalAlign=bottom;" connectable="0" vertex="1" parent="0fqkN6X1GzrUGr9mEwJ8-76">
          <mxGeometry x="1" relative="1" as="geometry">
            <mxPoint x="370" y="459" as="offset" />
          </mxGeometry>
        </mxCell>
        <mxCell id="0fqkN6X1GzrUGr9mEwJ8-90" value="*" style="edgeLabel;resizable=0;html=1;align=right;verticalAlign=bottom;" connectable="0" vertex="1" parent="0fqkN6X1GzrUGr9mEwJ8-76">
          <mxGeometry x="1" relative="1" as="geometry">
            <mxPoint x="370" y="559" as="offset" />
          </mxGeometry>
        </mxCell>
        <mxCell id="0fqkN6X1GzrUGr9mEwJ8-91" value="1" style="edgeLabel;resizable=0;html=1;align=right;verticalAlign=bottom;" connectable="0" vertex="1" parent="0fqkN6X1GzrUGr9mEwJ8-76">
          <mxGeometry x="1" relative="1" as="geometry">
            <mxPoint x="680" y="179" as="offset" />
          </mxGeometry>
        </mxCell>
        <mxCell id="0fqkN6X1GzrUGr9mEwJ8-92" value="1" style="edgeLabel;resizable=0;html=1;align=right;verticalAlign=bottom;" connectable="0" vertex="1" parent="0fqkN6X1GzrUGr9mEwJ8-76">
          <mxGeometry x="1" relative="1" as="geometry">
            <mxPoint x="680" y="209" as="offset" />
          </mxGeometry>
        </mxCell>
        <mxCell id="0fqkN6X1GzrUGr9mEwJ8-93" value="*" style="edgeLabel;resizable=0;html=1;align=right;verticalAlign=bottom;" connectable="0" vertex="1" parent="0fqkN6X1GzrUGr9mEwJ8-76">
          <mxGeometry x="1" relative="1" as="geometry">
            <mxPoint x="510" y="399" as="offset" />
          </mxGeometry>
        </mxCell>
        <mxCell id="0fqkN6X1GzrUGr9mEwJ8-94" value="*" style="edgeLabel;resizable=0;html=1;align=right;verticalAlign=bottom;" connectable="0" vertex="1" parent="0fqkN6X1GzrUGr9mEwJ8-76">
          <mxGeometry x="1" relative="1" as="geometry">
            <mxPoint x="720" y="399" as="offset" />
          </mxGeometry>
        </mxCell>
        <mxCell id="0fqkN6X1GzrUGr9mEwJ8-95" value="1" style="edgeLabel;resizable=0;html=1;align=right;verticalAlign=bottom;" connectable="0" vertex="1" parent="0fqkN6X1GzrUGr9mEwJ8-76">
          <mxGeometry x="1" relative="1" as="geometry">
            <mxPoint x="580" y="229" as="offset" />
          </mxGeometry>
        </mxCell>
        <mxCell id="0fqkN6X1GzrUGr9mEwJ8-96" value="1" style="edgeLabel;resizable=0;html=1;align=right;verticalAlign=bottom;" connectable="0" vertex="1" parent="0fqkN6X1GzrUGr9mEwJ8-76">
          <mxGeometry x="1" relative="1" as="geometry">
            <mxPoint x="750" y="269" as="offset" />
          </mxGeometry>
        </mxCell>
        <mxCell id="0fqkN6X1GzrUGr9mEwJ8-97" value="1" style="edgeLabel;resizable=0;html=1;align=right;verticalAlign=bottom;" connectable="0" vertex="1" parent="0fqkN6X1GzrUGr9mEwJ8-76">
          <mxGeometry x="1" relative="1" as="geometry">
            <mxPoint x="871" y="309" as="offset" />
          </mxGeometry>
        </mxCell>
        <mxCell id="0fqkN6X1GzrUGr9mEwJ8-98" value="Contains" style="edgeLabel;resizable=0;html=1;align=right;verticalAlign=bottom;" connectable="0" vertex="1" parent="0fqkN6X1GzrUGr9mEwJ8-76">
          <mxGeometry x="1" relative="1" as="geometry">
            <mxPoint x="-110" y="-81" as="offset" />
          </mxGeometry>
        </mxCell>
        <mxCell id="0fqkN6X1GzrUGr9mEwJ8-99" value="Has" style="edgeLabel;resizable=0;html=1;align=right;verticalAlign=bottom;" connectable="0" vertex="1" parent="0fqkN6X1GzrUGr9mEwJ8-76">
          <mxGeometry x="1" relative="1" as="geometry">
            <mxPoint x="-60" y="39" as="offset" />
          </mxGeometry>
        </mxCell>
        <mxCell id="0fqkN6X1GzrUGr9mEwJ8-100" value="Has" style="edgeLabel;resizable=0;html=1;align=right;verticalAlign=bottom;" connectable="0" vertex="1" parent="0fqkN6X1GzrUGr9mEwJ8-76">
          <mxGeometry x="1" relative="1" as="geometry">
            <mxPoint x="80" y="79" as="offset" />
          </mxGeometry>
        </mxCell>
        <mxCell id="0fqkN6X1GzrUGr9mEwJ8-101" value="Contains" style="edgeLabel;resizable=0;html=1;align=right;verticalAlign=bottom;" connectable="0" vertex="1" parent="0fqkN6X1GzrUGr9mEwJ8-76">
          <mxGeometry x="1" relative="1" as="geometry">
            <mxPoint x="410" y="159" as="offset" />
          </mxGeometry>
        </mxCell>
        <mxCell id="0fqkN6X1GzrUGr9mEwJ8-102" value="Has" style="edgeLabel;resizable=0;html=1;align=right;verticalAlign=bottom;" connectable="0" vertex="1" parent="0fqkN6X1GzrUGr9mEwJ8-76">
          <mxGeometry x="1" relative="1" as="geometry">
            <mxPoint x="160" y="159" as="offset" />
          </mxGeometry>
        </mxCell>
        <mxCell id="0fqkN6X1GzrUGr9mEwJ8-103" value="Supply" style="edgeLabel;resizable=0;html=1;align=right;verticalAlign=bottom;" connectable="0" vertex="1" parent="0fqkN6X1GzrUGr9mEwJ8-76">
          <mxGeometry x="1" relative="1" as="geometry">
            <mxPoint x="230" y="329" as="offset" />
          </mxGeometry>
        </mxCell>
        <mxCell id="0fqkN6X1GzrUGr9mEwJ8-104" value="Matches to" style="edgeLabel;resizable=0;html=1;align=right;verticalAlign=bottom;" connectable="0" vertex="1" parent="0fqkN6X1GzrUGr9mEwJ8-76">
          <mxGeometry x="1" relative="1" as="geometry">
            <mxPoint x="410" y="509" as="offset" />
          </mxGeometry>
        </mxCell>
        <mxCell id="0fqkN6X1GzrUGr9mEwJ8-105" value="Makes" style="edgeLabel;resizable=0;html=1;align=right;verticalAlign=bottom;" connectable="0" vertex="1" parent="0fqkN6X1GzrUGr9mEwJ8-76">
          <mxGeometry x="1" relative="1" as="geometry">
            <mxPoint x="-90" y="559" as="offset" />
          </mxGeometry>
        </mxCell>
        <mxCell id="0fqkN6X1GzrUGr9mEwJ8-106" value="Contains" style="edgeLabel;resizable=0;html=1;align=right;verticalAlign=bottom;" connectable="0" vertex="1" parent="0fqkN6X1GzrUGr9mEwJ8-76">
          <mxGeometry x="1" relative="1" as="geometry">
            <mxPoint x="200" y="589" as="offset" />
          </mxGeometry>
        </mxCell>
        <mxCell id="0fqkN6X1GzrUGr9mEwJ8-107" value="Implements" style="edgeLabel;resizable=0;html=1;align=right;verticalAlign=bottom;" connectable="0" vertex="1" parent="0fqkN6X1GzrUGr9mEwJ8-76">
          <mxGeometry x="1" relative="1" as="geometry">
            <mxPoint x="840" y="379" as="offset" />
          </mxGeometry>
        </mxCell>
        <mxCell id="0fqkN6X1GzrUGr9mEwJ8-108" value="Implements" style="edgeLabel;resizable=0;html=1;align=right;verticalAlign=bottom;" connectable="0" vertex="1" parent="0fqkN6X1GzrUGr9mEwJ8-76">
          <mxGeometry x="1" relative="1" as="geometry">
            <mxPoint x="1080" y="384" as="offset" />
          </mxGeometry>
        </mxCell>
        <mxCell id="0fqkN6X1GzrUGr9mEwJ8-109" value="Creates" style="edgeLabel;resizable=0;html=1;align=right;verticalAlign=bottom;" connectable="0" vertex="1" parent="0fqkN6X1GzrUGr9mEwJ8-76">
          <mxGeometry x="1" relative="1" as="geometry">
            <mxPoint x="1130" y="429" as="offset" />
          </mxGeometry>
        </mxCell>
        <mxCell id="0fqkN6X1GzrUGr9mEwJ8-110" value="Contains" style="edgeLabel;resizable=0;html=1;align=right;verticalAlign=bottom;" connectable="0" vertex="1" parent="0fqkN6X1GzrUGr9mEwJ8-76">
          <mxGeometry x="1" relative="1" as="geometry">
            <mxPoint x="780" y="349" as="offset" />
          </mxGeometry>
        </mxCell>
        <mxCell id="0fqkN6X1GzrUGr9mEwJ8-111" value="Contains" style="edgeLabel;resizable=0;html=1;align=right;verticalAlign=bottom;" connectable="0" vertex="1" parent="0fqkN6X1GzrUGr9mEwJ8-76">
          <mxGeometry x="1" relative="1" as="geometry">
            <mxPoint x="570" y="279" as="offset" />
          </mxGeometry>
        </mxCell>
        <mxCell id="0fqkN6X1GzrUGr9mEwJ8-112" value="1" style="edgeLabel;resizable=0;html=1;align=right;verticalAlign=bottom;" connectable="0" vertex="1" parent="0fqkN6X1GzrUGr9mEwJ8-76">
          <mxGeometry x="1" relative="1" as="geometry">
            <mxPoint x="871" y="699" as="offset" />
          </mxGeometry>
        </mxCell>
        <mxCell id="0fqkN6X1GzrUGr9mEwJ8-113" value="1" style="edgeLabel;resizable=0;html=1;align=right;verticalAlign=bottom;" connectable="0" vertex="1" parent="0fqkN6X1GzrUGr9mEwJ8-76">
          <mxGeometry x="1" relative="1" as="geometry">
            <mxPoint x="950" y="679" as="offset" />
          </mxGeometry>
        </mxCell>
        <mxCell id="0fqkN6X1GzrUGr9mEwJ8-114" value="1" style="edgeLabel;resizable=0;html=1;align=right;verticalAlign=bottom;" connectable="0" vertex="1" parent="0fqkN6X1GzrUGr9mEwJ8-76">
          <mxGeometry x="1" relative="1" as="geometry">
            <mxPoint x="250" y="459" as="offset" />
          </mxGeometry>
        </mxCell>
        <mxCell id="0fqkN6X1GzrUGr9mEwJ8-115" value="1" style="edgeLabel;resizable=0;html=1;align=right;verticalAlign=bottom;" connectable="0" vertex="1" parent="0fqkN6X1GzrUGr9mEwJ8-76">
          <mxGeometry x="1" relative="1" as="geometry">
            <mxPoint x="1080" y="459" as="offset" />
          </mxGeometry>
        </mxCell>
        <mxCell id="0fqkN6X1GzrUGr9mEwJ8-116" value="Uses" style="edgeLabel;resizable=0;html=1;align=right;verticalAlign=bottom;" connectable="0" vertex="1" parent="0fqkN6X1GzrUGr9mEwJ8-76">
          <mxGeometry x="1" relative="1" as="geometry">
            <mxPoint x="1190" y="319" as="offset" />
          </mxGeometry>
        </mxCell>
        <mxCell id="0fqkN6X1GzrUGr9mEwJ8-117" value="Bridge" style="edgeLabel;resizable=0;html=1;align=right;verticalAlign=bottom;" connectable="0" vertex="1" parent="0fqkN6X1GzrUGr9mEwJ8-76">
          <mxGeometry x="1" relative="1" as="geometry">
            <mxPoint x="800" y="319" as="offset" />
          </mxGeometry>
        </mxCell>
        <mxCell id="0fqkN6X1GzrUGr9mEwJ8-118" value="Contains" style="edgeLabel;resizable=0;html=1;align=right;verticalAlign=bottom;" connectable="0" vertex="1" parent="0fqkN6X1GzrUGr9mEwJ8-76">
          <mxGeometry x="1" relative="1" as="geometry">
            <mxPoint x="960" y="599" as="offset" />
          </mxGeometry>
        </mxCell>
        <mxCell id="0fqkN6X1GzrUGr9mEwJ8-119" value="Contains" style="edgeLabel;resizable=0;html=1;align=right;verticalAlign=bottom;" connectable="0" vertex="1" parent="0fqkN6X1GzrUGr9mEwJ8-76">
          <mxGeometry x="1" relative="1" as="geometry">
            <mxPoint x="810" y="719" as="offset" />
          </mxGeometry>
        </mxCell>
        <mxCell id="0fqkN6X1GzrUGr9mEwJ8-120" value="Contains" style="edgeLabel;resizable=0;html=1;align=right;verticalAlign=bottom;" connectable="0" vertex="1" parent="0fqkN6X1GzrUGr9mEwJ8-76">
          <mxGeometry x="1" relative="1" as="geometry">
            <mxPoint x="750" y="189" as="offset" />
          </mxGeometry>
        </mxCell>
        <mxCell id="0fqkN6X1GzrUGr9mEwJ8-121" value="Manages" style="edgeLabel;resizable=0;html=1;align=right;verticalAlign=bottom;" connectable="0" vertex="1" parent="0fqkN6X1GzrUGr9mEwJ8-76">
          <mxGeometry x="1" relative="1" as="geometry">
            <mxPoint x="1900" y="134" as="offset" />
          </mxGeometry>
        </mxCell>
        <mxCell id="0fqkN6X1GzrUGr9mEwJ8-122" value="Manages" style="edgeLabel;resizable=0;html=1;align=right;verticalAlign=bottom;" connectable="0" vertex="1" parent="0fqkN6X1GzrUGr9mEwJ8-76">
          <mxGeometry x="1" relative="1" as="geometry">
            <mxPoint x="1933" y="44" as="offset" />
          </mxGeometry>
        </mxCell>
        <mxCell id="0fqkN6X1GzrUGr9mEwJ8-123" value="Manages" style="edgeLabel;resizable=0;html=1;align=right;verticalAlign=bottom;" connectable="0" vertex="1" parent="0fqkN6X1GzrUGr9mEwJ8-76">
          <mxGeometry x="1" relative="1" as="geometry">
            <mxPoint x="1430" y="39" as="offset" />
          </mxGeometry>
        </mxCell>
        <mxCell id="0fqkN6X1GzrUGr9mEwJ8-124" value="Use" style="edgeLabel;resizable=0;html=1;align=right;verticalAlign=bottom;" connectable="0" vertex="1" parent="0fqkN6X1GzrUGr9mEwJ8-76">
          <mxGeometry x="1" relative="1" as="geometry">
            <mxPoint x="1753" y="134" as="offset" />
          </mxGeometry>
        </mxCell>
        <mxCell id="0fqkN6X1GzrUGr9mEwJ8-125" value="Extends" style="endArrow=block;endSize=16;endFill=0;html=1;rounded=0;exitX=0.5;exitY=0;exitDx=0;exitDy=0;" edge="1" parent="1" source="0fqkN6X1GzrUGr9mEwJ8-19">
          <mxGeometry width="160" relative="1" as="geometry">
            <mxPoint x="726" y="520" as="sourcePoint" />
            <mxPoint x="676" y="540" as="targetPoint" />
          </mxGeometry>
        </mxCell>
        <mxCell id="0fqkN6X1GzrUGr9mEwJ8-126" value="Extends" style="endArrow=block;endSize=16;endFill=0;html=1;rounded=0;exitX=0.5;exitY=0;exitDx=0;exitDy=0;" edge="1" parent="1" source="0fqkN6X1GzrUGr9mEwJ8-20">
          <mxGeometry width="160" relative="1" as="geometry">
            <mxPoint x="596" y="581" as="sourcePoint" />
            <mxPoint x="736" y="540" as="targetPoint" />
          </mxGeometry>
        </mxCell>
        <mxCell id="0fqkN6X1GzrUGr9mEwJ8-127" value="Extends" style="endArrow=block;endSize=16;endFill=0;html=1;rounded=0;exitX=0.5;exitY=0;exitDx=0;exitDy=0;entryX=0.5;entryY=1;entryDx=0;entryDy=0;" edge="1" parent="1" target="0fqkN6X1GzrUGr9mEwJ8-19">
          <mxGeometry width="160" relative="1" as="geometry">
            <mxPoint x="501" y="709" as="sourcePoint" />
            <mxPoint x="596" y="663" as="targetPoint" />
          </mxGeometry>
        </mxCell>
        <mxCell id="0fqkN6X1GzrUGr9mEwJ8-128" value="Extends" style="endArrow=block;endSize=16;endFill=0;html=1;rounded=0;exitX=0.5;exitY=0;exitDx=0;exitDy=0;entryX=0.75;entryY=1;entryDx=0;entryDy=0;" edge="1" parent="1" target="0fqkN6X1GzrUGr9mEwJ8-19">
          <mxGeometry width="160" relative="1" as="geometry">
            <mxPoint x="726" y="709" as="sourcePoint" />
            <mxPoint x="606" y="620" as="targetPoint" />
          </mxGeometry>
        </mxCell>
        <mxCell id="0fqkN6X1GzrUGr9mEwJ8-129" value="" style="endArrow=none;html=1;rounded=0;entryX=0;entryY=0.5;entryDx=0;entryDy=0;exitX=1.01;exitY=-0.132;exitDx=0;exitDy=0;exitPerimeter=0;" edge="1" parent="1" source="0fqkN6X1GzrUGr9mEwJ8-17" target="0fqkN6X1GzrUGr9mEwJ8-25">
          <mxGeometry width="50" height="50" relative="1" as="geometry">
            <mxPoint x="806" y="510" as="sourcePoint" />
            <mxPoint x="886" y="490" as="targetPoint" />
          </mxGeometry>
        </mxCell>
        <mxCell id="0fqkN6X1GzrUGr9mEwJ8-130" value="" style="endArrow=classic;html=1;rounded=0;entryX=-0.002;entryY=0.103;entryDx=0;entryDy=0;entryPerimeter=0;exitX=1;exitY=0.5;exitDx=0;exitDy=0;" edge="1" parent="1" source="0fqkN6X1GzrUGr9mEwJ8-17" target="0fqkN6X1GzrUGr9mEwJ8-41">
          <mxGeometry relative="1" as="geometry">
            <mxPoint x="806" y="530" as="sourcePoint" />
            <mxPoint x="796" y="401" as="targetPoint" />
            <Array as="points" />
          </mxGeometry>
        </mxCell>
        <mxCell id="0fqkN6X1GzrUGr9mEwJ8-131" value="" style="endArrow=open;html=1;endSize=12;startArrow=diamondThin;startSize=14;startFill=0;edgeStyle=orthogonalEdgeStyle;rounded=0;entryX=0.459;entryY=-0.002;entryDx=0;entryDy=0;entryPerimeter=0;" edge="1" parent="1" target="0fqkN6X1GzrUGr9mEwJ8-41">
          <mxGeometry x="0.6214" y="146" relative="1" as="geometry">
            <mxPoint x="1056" y="490" as="sourcePoint" />
            <mxPoint x="1146" y="520" as="targetPoint" />
            <Array as="points">
              <mxPoint x="1056" y="520" />
              <mxPoint x="1140" y="520" />
            </Array>
            <mxPoint x="106" y="140" as="offset" />
          </mxGeometry>
        </mxCell>
        <mxCell id="0fqkN6X1GzrUGr9mEwJ8-132" value="*" style="edgeLabel;resizable=0;html=1;align=left;verticalAlign=top;" connectable="0" vertex="1" parent="0fqkN6X1GzrUGr9mEwJ8-131">
          <mxGeometry x="-1" relative="1" as="geometry">
            <mxPoint x="50" y="70" as="offset" />
          </mxGeometry>
        </mxCell>
        <mxCell id="0fqkN6X1GzrUGr9mEwJ8-133" value="" style="endArrow=none;html=1;rounded=0;entryX=0.5;entryY=0;entryDx=0;entryDy=0;exitX=1;exitY=0.5;exitDx=0;exitDy=0;" edge="1" parent="1" source="0fqkN6X1GzrUGr9mEwJ8-18" target="0fqkN6X1GzrUGr9mEwJ8-51">
          <mxGeometry width="50" height="50" relative="1" as="geometry">
            <mxPoint x="806" y="538" as="sourcePoint" />
            <mxPoint x="936" y="483" as="targetPoint" />
            <Array as="points">
              <mxPoint x="976" y="590" />
              <mxPoint x="976" y="780" />
            </Array>
          </mxGeometry>
        </mxCell>
        <mxCell id="0fqkN6X1GzrUGr9mEwJ8-134" value="" style="endArrow=classic;html=1;rounded=0;entryX=-0.002;entryY=0.103;entryDx=0;entryDy=0;entryPerimeter=0;exitX=1.002;exitY=0.11;exitDx=0;exitDy=0;exitPerimeter=0;" edge="1" parent="1" source="0fqkN6X1GzrUGr9mEwJ8-69">
          <mxGeometry relative="1" as="geometry">
            <mxPoint x="476" y="869.5" as="sourcePoint" />
            <mxPoint x="746" y="980.5" as="targetPoint" />
            <Array as="points" />
          </mxGeometry>
        </mxCell>
        <mxCell id="0fqkN6X1GzrUGr9mEwJ8-135" value="1" style="endArrow=open;html=1;endSize=12;startArrow=diamondThin;startSize=14;startFill=1;edgeStyle=orthogonalEdgeStyle;align=left;verticalAlign=bottom;rounded=0;" edge="1" parent="1">
          <mxGeometry x="-1" y="3" relative="1" as="geometry">
            <mxPoint x="896" y="990" as="sourcePoint" />
            <mxPoint x="1056" y="990" as="targetPoint" />
            <Array as="points">
              <mxPoint x="976" y="990" />
              <mxPoint x="976" y="990" />
            </Array>
          </mxGeometry>
        </mxCell>
        <mxCell id="0fqkN6X1GzrUGr9mEwJ8-136" value="" style="endArrow=classic;html=1;rounded=0;exitX=0.5;exitY=0;exitDx=0;exitDy=0;entryX=0.361;entryY=1.063;entryDx=0;entryDy=0;entryPerimeter=0;" edge="1" parent="1" source="0fqkN6X1GzrUGr9mEwJ8-64" target="0fqkN6X1GzrUGr9mEwJ8-48">
          <mxGeometry relative="1" as="geometry">
            <mxPoint x="1123" y="940" as="sourcePoint" />
            <mxPoint x="1126" y="830" as="targetPoint" />
            <Array as="points" />
          </mxGeometry>
        </mxCell>
        <mxCell id="0fqkN6X1GzrUGr9mEwJ8-137" value="Extends" style="endArrow=block;endSize=16;endFill=0;html=1;rounded=0;" edge="1" parent="1">
          <mxGeometry width="160" relative="1" as="geometry">
            <mxPoint x="1326" y="803.2800000000001" as="sourcePoint" />
            <mxPoint x="1376" y="740" as="targetPoint" />
          </mxGeometry>
        </mxCell>
        <mxCell id="0fqkN6X1GzrUGr9mEwJ8-138" value="Extends" style="endArrow=block;endSize=16;endFill=0;html=1;rounded=0;" edge="1" parent="1">
          <mxGeometry width="160" relative="1" as="geometry">
            <mxPoint x="1464" y="804.33" as="sourcePoint" />
            <mxPoint x="1426" y="739.33" as="targetPoint" />
          </mxGeometry>
        </mxCell>
        <mxCell id="0fqkN6X1GzrUGr9mEwJ8-139" value="Extends" style="endArrow=block;endSize=16;endFill=0;html=1;rounded=0;entryX=0.5;entryY=1;entryDx=0;entryDy=0;" edge="1" parent="1" target="0fqkN6X1GzrUGr9mEwJ8-31">
          <mxGeometry width="160" relative="1" as="geometry">
            <mxPoint x="1426" y="960.2800000000001" as="sourcePoint" />
            <mxPoint x="1468" y="895.33" as="targetPoint" />
          </mxGeometry>
        </mxCell>
        <mxCell id="0fqkN6X1GzrUGr9mEwJ8-140" value="Extends" style="endArrow=block;endSize=16;endFill=0;html=1;rounded=0;" edge="1" parent="1">
          <mxGeometry x="-0.0053" width="160" relative="1" as="geometry">
            <mxPoint x="1576" y="964.33" as="sourcePoint" />
            <mxPoint x="1476" y="838.33" as="targetPoint" />
            <mxPoint as="offset" />
          </mxGeometry>
        </mxCell>
        <mxCell id="0fqkN6X1GzrUGr9mEwJ8-141" value="" style="whiteSpace=wrap;html=1;align=center;fillColor=none;" vertex="1" parent="1">
          <mxGeometry x="1276" y="648" width="570" height="400" as="geometry" />
        </mxCell>
        <mxCell id="0fqkN6X1GzrUGr9mEwJ8-142" value="" style="endArrow=open;endFill=1;endSize=12;html=1;rounded=0;exitX=0;exitY=0.5;exitDx=0;exitDy=0;" edge="1" parent="1" source="0fqkN6X1GzrUGr9mEwJ8-61">
          <mxGeometry width="160" relative="1" as="geometry">
            <mxPoint x="1933" y="824.37" as="sourcePoint" />
            <mxPoint x="1846" y="824.37" as="targetPoint" />
          </mxGeometry>
        </mxCell>
        <mxCell id="0fqkN6X1GzrUGr9mEwJ8-143" style="edgeStyle=orthogonalEdgeStyle;rounded=0;orthogonalLoop=1;jettySize=auto;html=1;entryX=0.5;entryY=0;entryDx=0;entryDy=0;" edge="1" parent="1" source="0fqkN6X1GzrUGr9mEwJ8-144" target="0fqkN6X1GzrUGr9mEwJ8-60">
          <mxGeometry relative="1" as="geometry" />
        </mxCell>
        <mxCell id="0fqkN6X1GzrUGr9mEwJ8-144" value="Supplier Contract" style="swimlane;fontStyle=0;childLayout=stackLayout;horizontal=1;startSize=26;fillColor=none;horizontalStack=0;resizeParent=1;resizeParentMax=0;resizeLast=0;collapsible=1;marginBottom=0;whiteSpace=wrap;html=1;" vertex="1" parent="1">
          <mxGeometry x="1286" y="499" width="200" height="52" as="geometry">
            <mxRectangle x="520" y="160" width="130" height="30" as="alternateBounds" />
          </mxGeometry>
        </mxCell>
        <mxCell id="0fqkN6X1GzrUGr9mEwJ8-145" value="-&amp;nbsp; Payment Ways : PaymentWays" style="text;strokeColor=none;fillColor=none;align=left;verticalAlign=top;spacingLeft=4;spacingRight=4;overflow=hidden;rotatable=0;points=[[0,0.5],[1,0.5]];portConstraint=eastwest;whiteSpace=wrap;html=1;" vertex="1" parent="0fqkN6X1GzrUGr9mEwJ8-144">
          <mxGeometry y="26" width="200" height="26" as="geometry" />
        </mxCell>
        <mxCell id="0fqkN6X1GzrUGr9mEwJ8-146" value="" style="endArrow=classic;html=1;rounded=0;entryX=0.053;entryY=0.4;entryDx=0;entryDy=0;entryPerimeter=0;" edge="1" parent="1" target="0fqkN6X1GzrUGr9mEwJ8-141">
          <mxGeometry relative="1" as="geometry">
            <mxPoint x="1376" y="620" as="sourcePoint" />
            <mxPoint x="1496" y="757" as="targetPoint" />
            <Array as="points">
              <mxPoint x="1306" y="620" />
              <mxPoint x="1306" y="680" />
            </Array>
          </mxGeometry>
        </mxCell>
        <mxCell id="0fqkN6X1GzrUGr9mEwJ8-147" value="" style="endArrow=classic;html=1;rounded=0;entryX=0.555;entryY=-0.025;entryDx=0;entryDy=0;entryPerimeter=0;" edge="1" parent="1">
          <mxGeometry relative="1" as="geometry">
            <mxPoint x="1516" y="630" as="sourcePoint" />
            <mxPoint x="1476" y="804.33" as="targetPoint" />
            <Array as="points">
              <mxPoint x="1516" y="760" />
              <mxPoint x="1476" y="760" />
            </Array>
          </mxGeometry>
        </mxCell>
        <mxCell id="0fqkN6X1GzrUGr9mEwJ8-148" value="" style="endArrow=classic;html=1;rounded=0;exitX=1;exitY=0.5;exitDx=0;exitDy=0;entryX=0;entryY=0.5;entryDx=0;entryDy=0;" edge="1" parent="1" source="0fqkN6X1GzrUGr9mEwJ8-27" target="0fqkN6X1GzrUGr9mEwJ8-38">
          <mxGeometry relative="1" as="geometry">
            <mxPoint x="1476" y="709" as="sourcePoint" />
            <mxPoint x="1656" y="706" as="targetPoint" />
            <Array as="points" />
          </mxGeometry>
        </mxCell>
        <mxCell id="0fqkN6X1GzrUGr9mEwJ8-149" value="Order" style="swimlane;fontStyle=0;childLayout=stackLayout;horizontal=1;startSize=26;fillColor=none;horizontalStack=0;resizeParent=1;resizeParentMax=0;resizeLast=0;collapsible=1;marginBottom=0;whiteSpace=wrap;html=1;" vertex="1" parent="1">
          <mxGeometry x="2691" y="566" width="150" height="192" as="geometry" />
        </mxCell>
        <mxCell id="0fqkN6X1GzrUGr9mEwJ8-150" value="- Order number: int&lt;br&gt;" style="text;strokeColor=none;fillColor=none;align=left;verticalAlign=top;spacingLeft=4;spacingRight=4;overflow=hidden;rotatable=0;points=[[0,0.5],[1,0.5]];portConstraint=eastwest;whiteSpace=wrap;html=1;" vertex="1" parent="0fqkN6X1GzrUGr9mEwJ8-149">
          <mxGeometry y="26" width="150" height="26" as="geometry" />
        </mxCell>
        <mxCell id="0fqkN6X1GzrUGr9mEwJ8-151" value="- Order date: Date" style="text;strokeColor=none;fillColor=none;align=left;verticalAlign=top;spacingLeft=4;spacingRight=4;overflow=hidden;rotatable=0;points=[[0,0.5],[1,0.5]];portConstraint=eastwest;whiteSpace=wrap;html=1;" vertex="1" parent="0fqkN6X1GzrUGr9mEwJ8-149">
          <mxGeometry y="52" width="150" height="26" as="geometry" />
        </mxCell>
        <mxCell id="0fqkN6X1GzrUGr9mEwJ8-152" value="- Cost: double" style="text;strokeColor=none;fillColor=none;align=left;verticalAlign=top;spacingLeft=4;spacingRight=4;overflow=hidden;rotatable=0;points=[[0,0.5],[1,0.5]];portConstraint=eastwest;whiteSpace=wrap;html=1;" vertex="1" parent="0fqkN6X1GzrUGr9mEwJ8-149">
          <mxGeometry y="78" width="150" height="26" as="geometry" />
        </mxCell>
        <mxCell id="0fqkN6X1GzrUGr9mEwJ8-153" value="- Branch number: int" style="text;strokeColor=none;fillColor=none;align=left;verticalAlign=top;spacingLeft=4;spacingRight=4;overflow=hidden;rotatable=0;points=[[0,0.5],[1,0.5]];portConstraint=eastwest;whiteSpace=wrap;html=1;" vertex="1" parent="0fqkN6X1GzrUGr9mEwJ8-149">
          <mxGeometry y="104" width="150" height="26" as="geometry" />
        </mxCell>
        <mxCell id="0fqkN6X1GzrUGr9mEwJ8-154" value="" style="line;strokeWidth=1;fillColor=none;align=left;verticalAlign=middle;spacingTop=-1;spacingLeft=3;spacingRight=3;rotatable=0;labelPosition=right;points=[];portConstraint=eastwest;strokeColor=inherit;" vertex="1" parent="0fqkN6X1GzrUGr9mEwJ8-149">
          <mxGeometry y="130" width="150" height="8" as="geometry" />
        </mxCell>
        <mxCell id="0fqkN6X1GzrUGr9mEwJ8-155" value="static" style="text;strokeColor=none;fillColor=none;align=left;verticalAlign=top;spacingLeft=4;spacingRight=4;overflow=hidden;rotatable=0;points=[[0,0.5],[1,0.5]];portConstraint=eastwest;whiteSpace=wrap;html=1;" vertex="1" parent="0fqkN6X1GzrUGr9mEwJ8-149">
          <mxGeometry y="138" width="150" height="24" as="geometry" />
        </mxCell>
        <mxCell id="0fqkN6X1GzrUGr9mEwJ8-156" value="- Order counter: int" style="text;strokeColor=none;fillColor=none;align=left;verticalAlign=top;spacingLeft=4;spacingRight=4;overflow=hidden;rotatable=0;points=[[0,0.5],[1,0.5]];portConstraint=eastwest;whiteSpace=wrap;html=1;" vertex="1" parent="0fqkN6X1GzrUGr9mEwJ8-149">
          <mxGeometry y="162" width="150" height="30" as="geometry" />
        </mxCell>
        <mxCell id="0fqkN6X1GzrUGr9mEwJ8-157" style="edgeStyle=orthogonalEdgeStyle;rounded=0;orthogonalLoop=1;jettySize=auto;html=1;entryX=-0.012;entryY=0.229;entryDx=0;entryDy=0;entryPerimeter=0;" edge="1" parent="1" source="0fqkN6X1GzrUGr9mEwJ8-159" target="0fqkN6X1GzrUGr9mEwJ8-184">
          <mxGeometry relative="1" as="geometry" />
        </mxCell>
        <mxCell id="0fqkN6X1GzrUGr9mEwJ8-158" style="edgeStyle=orthogonalEdgeStyle;rounded=0;orthogonalLoop=1;jettySize=auto;html=1;exitX=0;exitY=0.25;exitDx=0;exitDy=0;entryX=0;entryY=0.5;entryDx=0;entryDy=0;" edge="1" parent="1" source="0fqkN6X1GzrUGr9mEwJ8-159" target="0fqkN6X1GzrUGr9mEwJ8-179">
          <mxGeometry relative="1" as="geometry">
            <Array as="points">
              <mxPoint x="2046" y="433" />
              <mxPoint x="2046" y="914" />
              <mxPoint x="2134" y="914" />
            </Array>
          </mxGeometry>
        </mxCell>
        <mxCell id="0fqkN6X1GzrUGr9mEwJ8-159" value="Order Managment" style="swimlane;fontStyle=0;childLayout=stackLayout;horizontal=1;startSize=26;fillColor=none;horizontalStack=0;resizeParent=1;resizeParentMax=0;resizeLast=0;collapsible=1;marginBottom=0;whiteSpace=wrap;html=1;" vertex="1" parent="1">
          <mxGeometry x="2539" y="425" width="110" height="30" as="geometry" />
        </mxCell>
        <mxCell id="0fqkN6X1GzrUGr9mEwJ8-160" value="&lt;span style=&quot;font-weight: normal;&quot;&gt;Branch&lt;/span&gt;" style="swimlane;fontStyle=1;align=center;verticalAlign=top;childLayout=stackLayout;horizontal=1;startSize=26;horizontalStack=0;resizeParent=1;resizeParentMax=0;resizeLast=0;collapsible=1;marginBottom=0;whiteSpace=wrap;html=1;" vertex="1" parent="1">
          <mxGeometry x="2108.99" y="469.33000000000004" width="160" height="138" as="geometry" />
        </mxCell>
        <mxCell id="0fqkN6X1GzrUGr9mEwJ8-161" value="- Branch number: int&lt;br&gt;" style="text;strokeColor=none;fillColor=none;align=left;verticalAlign=top;spacingLeft=4;spacingRight=4;overflow=hidden;rotatable=0;points=[[0,0.5],[1,0.5]];portConstraint=eastwest;whiteSpace=wrap;html=1;" vertex="1" parent="0fqkN6X1GzrUGr9mEwJ8-160">
          <mxGeometry y="26" width="160" height="26" as="geometry" />
        </mxCell>
        <mxCell id="0fqkN6X1GzrUGr9mEwJ8-162" value="- Address: String" style="text;strokeColor=none;fillColor=none;align=left;verticalAlign=top;spacingLeft=4;spacingRight=4;overflow=hidden;rotatable=0;points=[[0,0.5],[1,0.5]];portConstraint=eastwest;whiteSpace=wrap;html=1;" vertex="1" parent="0fqkN6X1GzrUGr9mEwJ8-160">
          <mxGeometry y="52" width="160" height="26" as="geometry" />
        </mxCell>
        <mxCell id="0fqkN6X1GzrUGr9mEwJ8-163" value="" style="line;strokeWidth=1;fillColor=none;align=left;verticalAlign=middle;spacingTop=-1;spacingLeft=3;spacingRight=3;rotatable=0;labelPosition=right;points=[];portConstraint=eastwest;strokeColor=inherit;" vertex="1" parent="0fqkN6X1GzrUGr9mEwJ8-160">
          <mxGeometry y="78" width="160" height="8" as="geometry" />
        </mxCell>
        <mxCell id="0fqkN6X1GzrUGr9mEwJ8-164" value="static" style="text;strokeColor=none;fillColor=none;align=left;verticalAlign=top;spacingLeft=4;spacingRight=4;overflow=hidden;rotatable=0;points=[[0,0.5],[1,0.5]];portConstraint=eastwest;whiteSpace=wrap;html=1;" vertex="1" parent="0fqkN6X1GzrUGr9mEwJ8-160">
          <mxGeometry y="86" width="160" height="26" as="geometry" />
        </mxCell>
        <mxCell id="0fqkN6X1GzrUGr9mEwJ8-165" value="- Branch counter: int" style="text;strokeColor=none;fillColor=none;align=left;verticalAlign=top;spacingLeft=4;spacingRight=4;overflow=hidden;rotatable=0;points=[[0,0.5],[1,0.5]];portConstraint=eastwest;whiteSpace=wrap;html=1;" vertex="1" parent="0fqkN6X1GzrUGr9mEwJ8-160">
          <mxGeometry y="112" width="160" height="26" as="geometry" />
        </mxCell>
        <mxCell id="0fqkN6X1GzrUGr9mEwJ8-166" value="1" style="edgeLabel;resizable=0;html=1;align=right;verticalAlign=bottom;" connectable="0" vertex="1" parent="1">
          <mxGeometry x="2439.0006057457267" y="571.3729200417042" as="geometry">
            <mxPoint x="109" y="38" as="offset" />
          </mxGeometry>
        </mxCell>
        <mxCell id="0fqkN6X1GzrUGr9mEwJ8-167" value="1" style="edgeLabel;resizable=0;html=1;align=right;verticalAlign=bottom;" connectable="0" vertex="1" parent="1">
          <mxGeometry x="2398.9906057457265" y="426.0029200417042" as="geometry">
            <mxPoint x="183" y="52" as="offset" />
          </mxGeometry>
        </mxCell>
        <mxCell id="0fqkN6X1GzrUGr9mEwJ8-168" style="edgeStyle=orthogonalEdgeStyle;rounded=0;orthogonalLoop=1;jettySize=auto;html=1;exitX=0.933;exitY=-0.004;exitDx=0;exitDy=0;exitPerimeter=0;" edge="1" parent="1" source="0fqkN6X1GzrUGr9mEwJ8-273">
          <mxGeometry relative="1" as="geometry">
            <mxPoint x="2538.99" y="667.5" as="sourcePoint" />
            <mxPoint x="2691" y="660" as="targetPoint" />
            <Array as="points">
              <mxPoint x="2479" y="660" />
            </Array>
          </mxGeometry>
        </mxCell>
        <mxCell id="0fqkN6X1GzrUGr9mEwJ8-169" style="edgeStyle=orthogonalEdgeStyle;rounded=0;orthogonalLoop=1;jettySize=auto;html=1;exitX=0.75;exitY=0;exitDx=0;exitDy=0;" edge="1" parent="1">
          <mxGeometry relative="1" as="geometry">
            <mxPoint x="2559" y="455" as="targetPoint" />
            <mxPoint x="2513.99" y="615" as="sourcePoint" />
          </mxGeometry>
        </mxCell>
        <mxCell id="0fqkN6X1GzrUGr9mEwJ8-170" value="*" style="edgeLabel;resizable=0;html=1;align=right;verticalAlign=bottom;" connectable="0" vertex="1" parent="1">
          <mxGeometry x="2521.994636925887" y="614.0043535542802" as="geometry">
            <mxPoint x="159" y="69" as="offset" />
          </mxGeometry>
        </mxCell>
        <mxCell id="0fqkN6X1GzrUGr9mEwJ8-171" value="*" style="edgeLabel;resizable=0;html=1;align=right;verticalAlign=bottom;" connectable="0" vertex="1" parent="1">
          <mxGeometry x="2494.004636925887" y="601.0043535542802" as="geometry">
            <mxPoint x="178" y="36" as="offset" />
          </mxGeometry>
        </mxCell>
        <mxCell id="0fqkN6X1GzrUGr9mEwJ8-172" value="1" style="edgeLabel;resizable=0;html=1;align=right;verticalAlign=bottom;" connectable="0" vertex="1" parent="1">
          <mxGeometry x="2468.994636925887" y="455.0043535542802" as="geometry">
            <mxPoint x="160" y="33" as="offset" />
          </mxGeometry>
        </mxCell>
        <mxCell id="0fqkN6X1GzrUGr9mEwJ8-173" value="" style="endArrow=classic;html=1;rounded=0;exitX=0.5;exitY=1;exitDx=0;exitDy=0;" edge="1" parent="1">
          <mxGeometry relative="1" as="geometry">
            <mxPoint x="2614" y="455" as="sourcePoint" />
            <mxPoint x="2688.99" y="641.37" as="targetPoint" />
            <Array as="points" />
          </mxGeometry>
        </mxCell>
        <mxCell id="0fqkN6X1GzrUGr9mEwJ8-174" style="edgeStyle=orthogonalEdgeStyle;rounded=0;orthogonalLoop=1;jettySize=auto;html=1;entryX=0.25;entryY=0;entryDx=0;entryDy=0;" edge="1" parent="1" target="0fqkN6X1GzrUGr9mEwJ8-178">
          <mxGeometry relative="1" as="geometry">
            <mxPoint x="2176" y="920" as="sourcePoint" />
            <Array as="points">
              <mxPoint x="2176" y="985" />
            </Array>
          </mxGeometry>
        </mxCell>
        <mxCell id="0fqkN6X1GzrUGr9mEwJ8-175" style="edgeStyle=orthogonalEdgeStyle;rounded=0;orthogonalLoop=1;jettySize=auto;html=1;entryX=1.026;entryY=0.249;entryDx=0;entryDy=0;entryPerimeter=0;" edge="1" parent="1" source="0fqkN6X1GzrUGr9mEwJ8-273" target="0fqkN6X1GzrUGr9mEwJ8-165">
          <mxGeometry relative="1" as="geometry">
            <Array as="points" />
          </mxGeometry>
        </mxCell>
        <mxCell id="0fqkN6X1GzrUGr9mEwJ8-176" value="" style="endArrow=block;dashed=1;endFill=0;endSize=12;html=1;rounded=0;entryX=0;entryY=1;entryDx=0;entryDy=0;" edge="1" parent="1" target="0fqkN6X1GzrUGr9mEwJ8-38">
          <mxGeometry width="160" relative="1" as="geometry">
            <mxPoint x="1577" y="804.33" as="sourcePoint" />
            <mxPoint x="1737" y="804.33" as="targetPoint" />
          </mxGeometry>
        </mxCell>
        <mxCell id="0fqkN6X1GzrUGr9mEwJ8-177" value="" style="endArrow=block;dashed=1;endFill=0;endSize=12;html=1;rounded=0;entryX=1;entryY=1;entryDx=0;entryDy=0;" edge="1" parent="1" target="0fqkN6X1GzrUGr9mEwJ8-38">
          <mxGeometry width="160" relative="1" as="geometry">
            <mxPoint x="1826" y="800" as="sourcePoint" />
            <mxPoint x="1865" y="731" as="targetPoint" />
          </mxGeometry>
        </mxCell>
        <mxCell id="0fqkN6X1GzrUGr9mEwJ8-178" value="&lt;i&gt;Supplier&lt;/i&gt;" style="swimlane;fontStyle=0;childLayout=stackLayout;horizontal=1;startSize=26;fillColor=none;horizontalStack=0;resizeParent=1;resizeParentMax=0;resizeLast=0;collapsible=1;marginBottom=0;whiteSpace=wrap;html=1;" vertex="1" parent="1">
          <mxGeometry x="2133.99" y="985" width="210" height="78" as="geometry">
            <mxRectangle x="40" y="400" width="80" height="30" as="alternateBounds" />
          </mxGeometry>
        </mxCell>
        <mxCell id="0fqkN6X1GzrUGr9mEwJ8-179" value="- Catagories : LinkedList&amp;lt;String&amp;gt;" style="text;strokeColor=none;fillColor=none;align=left;verticalAlign=top;spacingLeft=4;spacingRight=4;overflow=hidden;rotatable=0;points=[[0,0.5],[1,0.5]];portConstraint=eastwest;whiteSpace=wrap;html=1;" vertex="1" parent="0fqkN6X1GzrUGr9mEwJ8-178">
          <mxGeometry y="26" width="210" height="26" as="geometry" />
        </mxCell>
        <mxCell id="0fqkN6X1GzrUGr9mEwJ8-180" value="- Manufacturers : LinkedList&amp;lt;String&amp;gt;" style="text;strokeColor=none;fillColor=none;align=left;verticalAlign=top;spacingLeft=4;spacingRight=4;overflow=hidden;rotatable=0;points=[[0,0.5],[1,0.5]];portConstraint=eastwest;whiteSpace=wrap;html=1;" vertex="1" parent="0fqkN6X1GzrUGr9mEwJ8-178">
          <mxGeometry y="52" width="210" height="26" as="geometry" />
        </mxCell>
        <mxCell id="0fqkN6X1GzrUGr9mEwJ8-181" value="1" style="edgeLabel;resizable=0;html=1;align=right;verticalAlign=bottom;" connectable="0" vertex="1" parent="1">
          <mxGeometry x="2553.994636925887" y="816.0043535542802" as="geometry">
            <mxPoint x="150" y="-9" as="offset" />
          </mxGeometry>
        </mxCell>
        <mxCell id="0fqkN6X1GzrUGr9mEwJ8-182" value="1" style="edgeLabel;resizable=0;html=1;align=right;verticalAlign=bottom;" connectable="0" vertex="1" parent="1">
          <mxGeometry x="2168.994636925887" y="944.0043535542802" as="geometry">
            <mxPoint x="16" y="1" as="offset" />
          </mxGeometry>
        </mxCell>
        <mxCell id="0fqkN6X1GzrUGr9mEwJ8-183" value="Order Item" style="swimlane;fontStyle=0;childLayout=stackLayout;horizontal=1;startSize=26;fillColor=none;horizontalStack=0;resizeParent=1;resizeParentMax=0;resizeLast=0;collapsible=1;marginBottom=0;whiteSpace=wrap;html=1;" vertex="1" parent="1">
          <mxGeometry x="2739" y="415" width="140" height="104" as="geometry" />
        </mxCell>
        <mxCell id="0fqkN6X1GzrUGr9mEwJ8-184" value="- Amount: int" style="text;strokeColor=none;fillColor=none;align=left;verticalAlign=top;spacingLeft=4;spacingRight=4;overflow=hidden;rotatable=0;points=[[0,0.5],[1,0.5]];portConstraint=eastwest;whiteSpace=wrap;html=1;" vertex="1" parent="0fqkN6X1GzrUGr9mEwJ8-183">
          <mxGeometry y="26" width="140" height="26" as="geometry" />
        </mxCell>
        <mxCell id="0fqkN6X1GzrUGr9mEwJ8-185" value="- Discount value: double" style="text;strokeColor=none;fillColor=none;align=left;verticalAlign=top;spacingLeft=4;spacingRight=4;overflow=hidden;rotatable=0;points=[[0,0.5],[1,0.5]];portConstraint=eastwest;whiteSpace=wrap;html=1;" vertex="1" parent="0fqkN6X1GzrUGr9mEwJ8-183">
          <mxGeometry y="52" width="140" height="26" as="geometry" />
        </mxCell>
        <mxCell id="0fqkN6X1GzrUGr9mEwJ8-186" value="- Final price: double" style="text;strokeColor=none;fillColor=none;align=left;verticalAlign=top;spacingLeft=4;spacingRight=4;overflow=hidden;rotatable=0;points=[[0,0.5],[1,0.5]];portConstraint=eastwest;whiteSpace=wrap;html=1;" vertex="1" parent="0fqkN6X1GzrUGr9mEwJ8-183">
          <mxGeometry y="78" width="140" height="26" as="geometry" />
        </mxCell>
        <mxCell id="0fqkN6X1GzrUGr9mEwJ8-187" value="1" style="edgeLabel;resizable=0;html=1;align=right;verticalAlign=bottom;" connectable="0" vertex="1" parent="1">
          <mxGeometry x="2508.994636925887" y="400.0043535542802" as="geometry">
            <mxPoint x="160" y="33" as="offset" />
          </mxGeometry>
        </mxCell>
        <mxCell id="0fqkN6X1GzrUGr9mEwJ8-188" style="edgeStyle=orthogonalEdgeStyle;rounded=0;orthogonalLoop=1;jettySize=auto;html=1;" edge="1" parent="1" source="0fqkN6X1GzrUGr9mEwJ8-190">
          <mxGeometry relative="1" as="geometry">
            <mxPoint x="1506" y="820" as="targetPoint" />
            <Array as="points">
              <mxPoint x="1721" y="1056" />
              <mxPoint x="1696" y="1056" />
              <mxPoint x="1696" y="880" />
              <mxPoint x="1526" y="880" />
              <mxPoint x="1526" y="820" />
            </Array>
          </mxGeometry>
        </mxCell>
        <mxCell id="0fqkN6X1GzrUGr9mEwJ8-189" style="edgeStyle=orthogonalEdgeStyle;rounded=0;orthogonalLoop=1;jettySize=auto;html=1;exitX=0;exitY=0.5;exitDx=0;exitDy=0;" edge="1" parent="1" source="0fqkN6X1GzrUGr9mEwJ8-190" target="0fqkN6X1GzrUGr9mEwJ8-141">
          <mxGeometry relative="1" as="geometry">
            <Array as="points">
              <mxPoint x="1266" y="1091" />
              <mxPoint x="1266" y="815" />
              <mxPoint x="1256" y="815" />
              <mxPoint x="1256" y="830" />
            </Array>
          </mxGeometry>
        </mxCell>
        <mxCell id="0fqkN6X1GzrUGr9mEwJ8-190" value="Order Managment" style="swimlane;fontStyle=0;childLayout=stackLayout;horizontal=1;startSize=26;fillColor=none;horizontalStack=0;resizeParent=1;resizeParentMax=0;resizeLast=0;collapsible=1;marginBottom=0;whiteSpace=wrap;html=1;" vertex="1" parent="1">
          <mxGeometry x="1666" y="1076" width="110" height="30" as="geometry" />
        </mxCell>
        <mxCell id="0fqkN6X1GzrUGr9mEwJ8-191" style="edgeStyle=orthogonalEdgeStyle;rounded=0;orthogonalLoop=1;jettySize=auto;html=1;entryX=-0.029;entryY=-0.188;entryDx=0;entryDy=0;entryPerimeter=0;" edge="1" parent="1" source="0fqkN6X1GzrUGr9mEwJ8-192" target="0fqkN6X1GzrUGr9mEwJ8-46">
          <mxGeometry relative="1" as="geometry" />
        </mxCell>
        <mxCell id="0fqkN6X1GzrUGr9mEwJ8-192" value="Order Managment" style="swimlane;fontStyle=0;childLayout=stackLayout;horizontal=1;startSize=26;fillColor=none;horizontalStack=0;resizeParent=1;resizeParentMax=0;resizeLast=0;collapsible=1;marginBottom=0;whiteSpace=wrap;html=1;" vertex="1" parent="1">
          <mxGeometry x="966" y="858.33" width="110" height="30" as="geometry" />
        </mxCell>
        <mxCell id="0fqkN6X1GzrUGr9mEwJ8-193" value="&lt;p style=&quot;margin:0px;margin-top:4px;text-align:center;&quot;&gt;&lt;b&gt;AMenu&lt;/b&gt;&lt;/p&gt;&lt;hr size=&quot;1&quot;/&gt;" style="verticalAlign=top;align=left;overflow=fill;fontSize=14;fontFamily=Helvetica;html=1;rounded=0;shadow=0;comic=0;labelBackgroundColor=none;strokeWidth=1;" vertex="1" parent="1">
          <mxGeometry x="1736.5" y="201" width="108" height="32" as="geometry" />
        </mxCell>
        <mxCell id="0fqkN6X1GzrUGr9mEwJ8-194" value="&lt;p style=&quot;margin:0px;margin-top:4px;text-align:center;&quot;&gt;&lt;b&gt;AdminMenu&lt;/b&gt;&lt;/p&gt;&lt;hr size=&quot;1&quot;/&gt;" style="verticalAlign=top;align=left;overflow=fill;fontSize=14;fontFamily=Helvetica;html=1;rounded=0;shadow=0;comic=0;labelBackgroundColor=none;strokeWidth=1;" vertex="1" parent="1">
          <mxGeometry x="1887" y="397" width="148" height="32" as="geometry" />
        </mxCell>
        <mxCell id="0fqkN6X1GzrUGr9mEwJ8-195" value="&lt;p style=&quot;margin:0px;margin-top:4px;text-align:center;&quot;&gt;&lt;b&gt;OrderMenu&lt;/b&gt;&lt;/p&gt;&lt;hr size=&quot;1&quot;/&gt;" style="verticalAlign=top;align=left;overflow=fill;fontSize=14;fontFamily=Helvetica;html=1;rounded=0;shadow=0;comic=0;labelBackgroundColor=none;strokeWidth=1;" vertex="1" parent="1">
          <mxGeometry x="1546" y="397" width="143" height="32" as="geometry" />
        </mxCell>
        <mxCell id="0fqkN6X1GzrUGr9mEwJ8-196" value="&lt;p style=&quot;margin:0px;margin-top:4px;text-align:center;&quot;&gt;&lt;b&gt;SupplierMenu&lt;/b&gt;&lt;/p&gt;&lt;hr size=&quot;1&quot;/&gt;" style="verticalAlign=top;align=left;overflow=fill;fontSize=14;fontFamily=Helvetica;html=1;rounded=0;shadow=0;comic=0;labelBackgroundColor=none;strokeWidth=1;" vertex="1" parent="1">
          <mxGeometry x="1709" y="397" width="163" height="32" as="geometry" />
        </mxCell>
        <mxCell id="0fqkN6X1GzrUGr9mEwJ8-197" value="Extends" style="endArrow=block;endSize=16;endFill=0;html=1;rounded=0;entryX=1;entryY=1;entryDx=0;entryDy=0;" edge="1" parent="1" source="0fqkN6X1GzrUGr9mEwJ8-194" target="0fqkN6X1GzrUGr9mEwJ8-193">
          <mxGeometry width="160" relative="1" as="geometry">
            <mxPoint x="1966" y="390" as="sourcePoint" />
            <mxPoint x="2086" y="410" as="targetPoint" />
          </mxGeometry>
        </mxCell>
        <mxCell id="0fqkN6X1GzrUGr9mEwJ8-198" value="Extends" style="endArrow=block;endSize=16;endFill=0;html=1;rounded=0;entryX=0.5;entryY=1;entryDx=0;entryDy=0;" edge="1" parent="1" source="0fqkN6X1GzrUGr9mEwJ8-196" target="0fqkN6X1GzrUGr9mEwJ8-193">
          <mxGeometry width="160" relative="1" as="geometry">
            <mxPoint x="1796" y="390" as="sourcePoint" />
            <mxPoint x="1837" y="283" as="targetPoint" />
          </mxGeometry>
        </mxCell>
        <mxCell id="0fqkN6X1GzrUGr9mEwJ8-199" value="Extends" style="endArrow=block;endSize=16;endFill=0;html=1;rounded=0;entryX=0;entryY=1;entryDx=0;entryDy=0;" edge="1" parent="1" target="0fqkN6X1GzrUGr9mEwJ8-193">
          <mxGeometry width="160" relative="1" as="geometry">
            <mxPoint x="1676" y="397" as="sourcePoint" />
            <mxPoint x="1733" y="269" as="targetPoint" />
          </mxGeometry>
        </mxCell>
        <mxCell id="0fqkN6X1GzrUGr9mEwJ8-200" value="AdminController" style="swimlane;fontStyle=0;childLayout=stackLayout;horizontal=1;startSize=26;fillColor=none;horizontalStack=0;resizeParent=1;resizeParentMax=0;resizeLast=0;collapsible=1;marginBottom=0;whiteSpace=wrap;html=1;" vertex="1" parent="1">
          <mxGeometry x="1891" y="460" width="140" height="52" as="geometry" />
        </mxCell>
        <mxCell id="0fqkN6X1GzrUGr9mEwJ8-201" value="SupplierController" style="swimlane;fontStyle=0;childLayout=stackLayout;horizontal=1;startSize=26;fillColor=none;horizontalStack=0;resizeParent=1;resizeParentMax=0;resizeLast=0;collapsible=1;marginBottom=0;whiteSpace=wrap;html=1;" vertex="1" parent="1">
          <mxGeometry x="1720.5" y="460" width="140" height="52" as="geometry" />
        </mxCell>
        <mxCell id="0fqkN6X1GzrUGr9mEwJ8-202" value="OrderController" style="swimlane;fontStyle=0;childLayout=stackLayout;horizontal=1;startSize=26;fillColor=none;horizontalStack=0;resizeParent=1;resizeParentMax=0;resizeLast=0;collapsible=1;marginBottom=0;whiteSpace=wrap;html=1;" vertex="1" parent="1">
          <mxGeometry x="1546" y="460" width="140" height="52" as="geometry" />
        </mxCell>
        <mxCell id="0fqkN6X1GzrUGr9mEwJ8-203" value="" style="endArrow=open;endFill=1;endSize=12;html=1;rounded=0;exitX=0.436;exitY=1.013;exitDx=0;exitDy=0;exitPerimeter=0;entryX=0.439;entryY=0.012;entryDx=0;entryDy=0;entryPerimeter=0;" edge="1" parent="1" source="0fqkN6X1GzrUGr9mEwJ8-194" target="0fqkN6X1GzrUGr9mEwJ8-200">
          <mxGeometry width="160" relative="1" as="geometry">
            <mxPoint x="1746" y="560" as="sourcePoint" />
            <mxPoint x="1906" y="560" as="targetPoint" />
          </mxGeometry>
        </mxCell>
        <mxCell id="0fqkN6X1GzrUGr9mEwJ8-204" value="Uses" style="text;html=1;align=center;verticalAlign=middle;resizable=0;points=[];autosize=1;strokeColor=none;fillColor=none;" vertex="1" parent="1">
          <mxGeometry x="1946" y="429" width="50" height="30" as="geometry" />
        </mxCell>
        <mxCell id="0fqkN6X1GzrUGr9mEwJ8-205" value="1" style="text;html=1;align=center;verticalAlign=middle;resizable=0;points=[];autosize=1;strokeColor=none;fillColor=none;" vertex="1" parent="1">
          <mxGeometry x="1926" y="415" width="30" height="30" as="geometry" />
        </mxCell>
        <mxCell id="0fqkN6X1GzrUGr9mEwJ8-206" value="1" style="text;html=1;align=center;verticalAlign=middle;resizable=0;points=[];autosize=1;strokeColor=none;fillColor=none;" vertex="1" parent="1">
          <mxGeometry x="1926" y="439.33000000000004" width="30" height="30" as="geometry" />
        </mxCell>
        <mxCell id="0fqkN6X1GzrUGr9mEwJ8-207" value="" style="endArrow=open;endFill=1;endSize=12;html=1;rounded=0;exitX=0.5;exitY=1;exitDx=0;exitDy=0;entryX=0.5;entryY=0;entryDx=0;entryDy=0;" edge="1" parent="1" source="0fqkN6X1GzrUGr9mEwJ8-196" target="0fqkN6X1GzrUGr9mEwJ8-201">
          <mxGeometry width="160" relative="1" as="geometry">
            <mxPoint x="1746" y="560" as="sourcePoint" />
            <mxPoint x="1906" y="560" as="targetPoint" />
          </mxGeometry>
        </mxCell>
        <mxCell id="0fqkN6X1GzrUGr9mEwJ8-208" value="Uses" style="text;html=1;align=center;verticalAlign=middle;resizable=0;points=[];autosize=1;strokeColor=none;fillColor=none;" vertex="1" parent="1">
          <mxGeometry x="1791" y="430" width="50" height="30" as="geometry" />
        </mxCell>
        <mxCell id="0fqkN6X1GzrUGr9mEwJ8-209" value="1" style="text;html=1;align=center;verticalAlign=middle;resizable=0;points=[];autosize=1;strokeColor=none;fillColor=none;" vertex="1" parent="1">
          <mxGeometry x="1761" y="418" width="30" height="30" as="geometry" />
        </mxCell>
        <mxCell id="0fqkN6X1GzrUGr9mEwJ8-210" value="1" style="text;html=1;align=center;verticalAlign=middle;resizable=0;points=[];autosize=1;strokeColor=none;fillColor=none;" vertex="1" parent="1">
          <mxGeometry x="1761" y="439.33000000000004" width="30" height="30" as="geometry" />
        </mxCell>
        <mxCell id="0fqkN6X1GzrUGr9mEwJ8-211" value="" style="endArrow=open;endFill=1;endSize=12;html=1;rounded=0;exitX=0.431;exitY=1.013;exitDx=0;exitDy=0;exitPerimeter=0;entryX=0.5;entryY=0;entryDx=0;entryDy=0;" edge="1" parent="1" target="0fqkN6X1GzrUGr9mEwJ8-202">
          <mxGeometry width="160" relative="1" as="geometry">
            <mxPoint x="1618.6329999999998" y="429.41599999999994" as="sourcePoint" />
            <mxPoint x="1620.1399999999999" y="459.79200000000003" as="targetPoint" />
          </mxGeometry>
        </mxCell>
        <mxCell id="0fqkN6X1GzrUGr9mEwJ8-212" value="Uses" style="text;html=1;align=center;verticalAlign=middle;resizable=0;points=[];autosize=1;strokeColor=none;fillColor=none;" vertex="1" parent="1">
          <mxGeometry x="1611" y="428" width="50" height="30" as="geometry" />
        </mxCell>
        <mxCell id="0fqkN6X1GzrUGr9mEwJ8-213" value="1" style="text;html=1;align=center;verticalAlign=middle;resizable=0;points=[];autosize=1;strokeColor=none;fillColor=none;" vertex="1" parent="1">
          <mxGeometry x="1591" y="418" width="30" height="30" as="geometry" />
        </mxCell>
        <mxCell id="0fqkN6X1GzrUGr9mEwJ8-214" value="1" style="text;html=1;align=center;verticalAlign=middle;resizable=0;points=[];autosize=1;strokeColor=none;fillColor=none;" vertex="1" parent="1">
          <mxGeometry x="1591" y="439.33000000000004" width="30" height="30" as="geometry" />
        </mxCell>
        <mxCell id="0fqkN6X1GzrUGr9mEwJ8-215" value="CatalogItem" style="swimlane;fontStyle=0;childLayout=stackLayout;horizontal=1;startSize=26;fillColor=none;horizontalStack=0;resizeParent=1;resizeParentMax=0;resizeLast=0;collapsible=1;marginBottom=0;whiteSpace=wrap;html=1;" vertex="1" parent="1">
          <mxGeometry x="1086" y="1100" width="150" height="150" as="geometry" />
        </mxCell>
        <mxCell id="0fqkN6X1GzrUGr9mEwJ8-216" value="- id : int&lt;br&gt;- name : String&lt;br&gt;- manufacturer : String&lt;br&gt;- sellPrice : double&lt;br&gt;- minCapacity : int&lt;br&gt;- shelvesLocation : int&lt;br&gt;- backLocation : int&lt;br&gt;- shelfLife : int =  7" style="text;strokeColor=none;fillColor=none;align=left;verticalAlign=top;spacingLeft=4;spacingRight=4;overflow=hidden;rotatable=0;points=[[0,0.5],[1,0.5]];portConstraint=eastwest;whiteSpace=wrap;html=1;" vertex="1" parent="0fqkN6X1GzrUGr9mEwJ8-215">
          <mxGeometry y="26" width="150" height="124" as="geometry" />
        </mxCell>
        <mxCell id="0fqkN6X1GzrUGr9mEwJ8-217" value="" style="endArrow=open;endFill=1;endSize=12;html=1;rounded=0;exitX=0.931;exitY=1.062;exitDx=0;exitDy=0;exitPerimeter=0;" edge="1" parent="1" source="0fqkN6X1GzrUGr9mEwJ8-48">
          <mxGeometry width="160" relative="1" as="geometry">
            <mxPoint x="1207" y="820" as="sourcePoint" />
            <mxPoint x="1207" y="1100" as="targetPoint" />
          </mxGeometry>
        </mxCell>
        <mxCell id="0fqkN6X1GzrUGr9mEwJ8-218" value="1" style="text;html=1;align=center;verticalAlign=middle;resizable=0;points=[];autosize=1;strokeColor=none;fillColor=none;" vertex="1" parent="1">
          <mxGeometry x="1181" y="788" width="30" height="30" as="geometry" />
        </mxCell>
        <mxCell id="0fqkN6X1GzrUGr9mEwJ8-219" value="PeriodicReport" style="swimlane;fontStyle=0;childLayout=stackLayout;horizontal=1;startSize=26;fillColor=none;horizontalStack=0;resizeParent=1;resizeParentMax=0;resizeLast=0;collapsible=1;marginBottom=0;whiteSpace=wrap;html=1;" vertex="1" parent="1">
          <mxGeometry x="2304" y="447" width="180" height="104" as="geometry" />
        </mxCell>
        <mxCell id="0fqkN6X1GzrUGr9mEwJ8-220" value="- Supplier : Supplier" style="text;strokeColor=none;fillColor=none;align=left;verticalAlign=top;spacingLeft=4;spacingRight=4;overflow=hidden;rotatable=0;points=[[0,0.5],[1,0.5]];portConstraint=eastwest;whiteSpace=wrap;html=1;" vertex="1" parent="0fqkN6X1GzrUGr9mEwJ8-219">
          <mxGeometry y="26" width="180" height="26" as="geometry" />
        </mxCell>
        <mxCell id="0fqkN6X1GzrUGr9mEwJ8-221" value="- Day to deliver : Day" style="text;strokeColor=none;fillColor=none;align=left;verticalAlign=top;spacingLeft=4;spacingRight=4;overflow=hidden;rotatable=0;points=[[0,0.5],[1,0.5]];portConstraint=eastwest;whiteSpace=wrap;html=1;" vertex="1" parent="0fqkN6X1GzrUGr9mEwJ8-219">
          <mxGeometry y="52" width="180" height="26" as="geometry" />
        </mxCell>
        <mxCell id="0fqkN6X1GzrUGr9mEwJ8-222" value="ListOfQuantities:LinkedList&amp;lt;int&amp;gt;" style="text;strokeColor=none;fillColor=none;align=left;verticalAlign=top;spacingLeft=4;spacingRight=4;overflow=hidden;rotatable=0;points=[[0,0.5],[1,0.5]];portConstraint=eastwest;whiteSpace=wrap;html=1;" vertex="1" parent="0fqkN6X1GzrUGr9mEwJ8-219">
          <mxGeometry y="78" width="180" height="26" as="geometry" />
        </mxCell>
        <mxCell id="0fqkN6X1GzrUGr9mEwJ8-223" value="1" style="endArrow=open;html=1;endSize=12;startArrow=diamondThin;startSize=14;startFill=1;edgeStyle=orthogonalEdgeStyle;align=left;verticalAlign=bottom;rounded=0;entryX=0.839;entryY=1;entryDx=0;entryDy=0;entryPerimeter=0;" edge="1" parent="1" target="0fqkN6X1GzrUGr9mEwJ8-186">
          <mxGeometry x="-1" y="3" relative="1" as="geometry">
            <mxPoint x="2846" y="590" as="sourcePoint" />
            <mxPoint x="2979" y="590" as="targetPoint" />
            <Array as="points">
              <mxPoint x="2856" y="590" />
            </Array>
          </mxGeometry>
        </mxCell>
        <mxCell id="0fqkN6X1GzrUGr9mEwJ8-224" value="1,*" style="text;html=1;align=center;verticalAlign=middle;resizable=0;points=[];autosize=1;strokeColor=none;fillColor=none;" vertex="1" parent="1">
          <mxGeometry x="2816" y="518" width="40" height="30" as="geometry" />
        </mxCell>
        <mxCell id="0fqkN6X1GzrUGr9mEwJ8-225" value="Supplier Item" style="swimlane;fontStyle=0;childLayout=stackLayout;horizontal=1;startSize=26;fillColor=none;horizontalStack=0;resizeParent=1;resizeParentMax=0;resizeLast=0;collapsible=1;marginBottom=0;whiteSpace=wrap;html=1;" vertex="1" parent="1">
          <mxGeometry x="2369" y="201" width="140" height="208" as="geometry" />
        </mxCell>
        <mxCell id="0fqkN6X1GzrUGr9mEwJ8-226" value="- Catalog number: int" style="text;strokeColor=none;fillColor=none;align=left;verticalAlign=top;spacingLeft=4;spacingRight=4;overflow=hidden;rotatable=0;points=[[0,0.5],[1,0.5]];portConstraint=eastwest;whiteSpace=wrap;html=1;" vertex="1" parent="0fqkN6X1GzrUGr9mEwJ8-225">
          <mxGeometry y="26" width="140" height="26" as="geometry" />
        </mxCell>
        <mxCell id="0fqkN6X1GzrUGr9mEwJ8-227" value="- Name: String" style="text;strokeColor=none;fillColor=none;align=left;verticalAlign=top;spacingLeft=4;spacingRight=4;overflow=hidden;rotatable=0;points=[[0,0.5],[1,0.5]];portConstraint=eastwest;whiteSpace=wrap;html=1;" vertex="1" parent="0fqkN6X1GzrUGr9mEwJ8-225">
          <mxGeometry y="52" width="140" height="26" as="geometry" />
        </mxCell>
        <mxCell id="0fqkN6X1GzrUGr9mEwJ8-228" value="- Manufacturer: String" style="text;strokeColor=none;fillColor=none;align=left;verticalAlign=top;spacingLeft=4;spacingRight=4;overflow=hidden;rotatable=0;points=[[0,0.5],[1,0.5]];portConstraint=eastwest;whiteSpace=wrap;html=1;" vertex="1" parent="0fqkN6X1GzrUGr9mEwJ8-225">
          <mxGeometry y="78" width="140" height="26" as="geometry" />
        </mxCell>
        <mxCell id="0fqkN6X1GzrUGr9mEwJ8-229" value="- Catagory: String" style="text;strokeColor=none;fillColor=none;align=left;verticalAlign=top;spacingLeft=4;spacingRight=4;overflow=hidden;rotatable=0;points=[[0,0.5],[1,0.5]];portConstraint=eastwest;whiteSpace=wrap;html=1;" vertex="1" parent="0fqkN6X1GzrUGr9mEwJ8-225">
          <mxGeometry y="104" width="140" height="26" as="geometry" />
        </mxCell>
        <mxCell id="0fqkN6X1GzrUGr9mEwJ8-230" value="- Unit price: double" style="text;strokeColor=none;fillColor=none;align=left;verticalAlign=top;spacingLeft=4;spacingRight=4;overflow=hidden;rotatable=0;points=[[0,0.5],[1,0.5]];portConstraint=eastwest;whiteSpace=wrap;html=1;" vertex="1" parent="0fqkN6X1GzrUGr9mEwJ8-225">
          <mxGeometry y="130" width="140" height="26" as="geometry" />
        </mxCell>
        <mxCell id="0fqkN6X1GzrUGr9mEwJ8-231" value="- Unit Weight: double&lt;br&gt;" style="text;strokeColor=none;fillColor=none;align=left;verticalAlign=top;spacingLeft=4;spacingRight=4;overflow=hidden;rotatable=0;points=[[0,0.5],[1,0.5]];portConstraint=eastwest;whiteSpace=wrap;html=1;" vertex="1" parent="0fqkN6X1GzrUGr9mEwJ8-225">
          <mxGeometry y="156" width="140" height="26" as="geometry" />
        </mxCell>
        <mxCell id="0fqkN6X1GzrUGr9mEwJ8-232" value="- Number of units: int" style="text;strokeColor=none;fillColor=none;align=left;verticalAlign=top;spacingLeft=4;spacingRight=4;overflow=hidden;rotatable=0;points=[[0,0.5],[1,0.5]];portConstraint=eastwest;whiteSpace=wrap;html=1;" vertex="1" parent="0fqkN6X1GzrUGr9mEwJ8-225">
          <mxGeometry y="182" width="140" height="26" as="geometry" />
        </mxCell>
        <mxCell id="0fqkN6X1GzrUGr9mEwJ8-233" value="1" style="endArrow=open;html=1;endSize=12;startArrow=diamondThin;startSize=14;startFill=0;edgeStyle=orthogonalEdgeStyle;align=left;verticalAlign=bottom;rounded=0;entryX=0;entryY=0.5;entryDx=0;entryDy=0;" edge="1" parent="1" source="0fqkN6X1GzrUGr9mEwJ8-219" target="0fqkN6X1GzrUGr9mEwJ8-228">
          <mxGeometry x="-1" y="3" relative="1" as="geometry">
            <mxPoint x="2316" y="440" as="sourcePoint" />
            <mxPoint x="2316" y="290" as="targetPoint" />
            <Array as="points">
              <mxPoint x="2286" y="499" />
              <mxPoint x="2286" y="290" />
              <mxPoint x="2356" y="290" />
              <mxPoint x="2356" y="292" />
            </Array>
          </mxGeometry>
        </mxCell>
        <mxCell id="0fqkN6X1GzrUGr9mEwJ8-234" value="Contains" style="text;html=1;align=center;verticalAlign=middle;resizable=0;points=[];autosize=1;strokeColor=none;fillColor=none;" vertex="1" parent="1">
          <mxGeometry x="2221" y="350" width="70" height="30" as="geometry" />
        </mxCell>
        <mxCell id="0fqkN6X1GzrUGr9mEwJ8-235" value="1,*" style="text;html=1;align=center;verticalAlign=middle;resizable=0;points=[];autosize=1;strokeColor=none;fillColor=none;" vertex="1" parent="1">
          <mxGeometry x="2338.99" y="262" width="40" height="30" as="geometry" />
        </mxCell>
        <mxCell id="0fqkN6X1GzrUGr9mEwJ8-236" value="" style="endArrow=open;endFill=1;endSize=12;html=1;rounded=0;exitX=0;exitY=0.75;exitDx=0;exitDy=0;entryX=0.998;entryY=0.185;entryDx=0;entryDy=0;entryPerimeter=0;" edge="1" parent="1" source="0fqkN6X1GzrUGr9mEwJ8-159" target="0fqkN6X1GzrUGr9mEwJ8-221">
          <mxGeometry width="160" relative="1" as="geometry">
            <mxPoint x="2236" y="640" as="sourcePoint" />
            <mxPoint x="2396" y="640" as="targetPoint" />
          </mxGeometry>
        </mxCell>
        <mxCell id="0fqkN6X1GzrUGr9mEwJ8-237" value="1" style="text;html=1;align=center;verticalAlign=middle;resizable=0;points=[];autosize=1;strokeColor=none;fillColor=none;" vertex="1" parent="1">
          <mxGeometry x="2511" y="428" width="30" height="30" as="geometry" />
        </mxCell>
        <mxCell id="0fqkN6X1GzrUGr9mEwJ8-238" value="*" style="text;html=1;align=center;verticalAlign=middle;resizable=0;points=[];autosize=1;strokeColor=none;fillColor=none;" vertex="1" parent="1">
          <mxGeometry x="2473.99" y="469.33" width="30" height="30" as="geometry" />
        </mxCell>
        <mxCell id="0fqkN6X1GzrUGr9mEwJ8-239" value="" style="endArrow=open;endFill=1;endSize=12;html=1;rounded=0;exitX=1.075;exitY=1.067;exitDx=0;exitDy=0;exitPerimeter=0;" edge="1" parent="1" source="0fqkN6X1GzrUGr9mEwJ8-241" target="0fqkN6X1GzrUGr9mEwJ8-222">
          <mxGeometry width="160" relative="1" as="geometry">
            <mxPoint x="2455.5899999999997" y="605.6550000000001" as="sourcePoint" />
            <mxPoint x="2429" y="571.37" as="targetPoint" />
          </mxGeometry>
        </mxCell>
        <mxCell id="0fqkN6X1GzrUGr9mEwJ8-240" value="Ordrers" style="text;html=1;align=center;verticalAlign=middle;resizable=0;points=[];autosize=1;strokeColor=none;fillColor=none;" vertex="1" parent="1">
          <mxGeometry x="2493.99" y="469.33" width="60" height="30" as="geometry" />
        </mxCell>
        <mxCell id="0fqkN6X1GzrUGr9mEwJ8-241" value="Manages" style="text;html=1;align=center;verticalAlign=middle;resizable=0;points=[];autosize=1;strokeColor=none;fillColor=none;" vertex="1" parent="1">
          <mxGeometry x="2363.99" y="681.3299999999999" width="70" height="30" as="geometry" />
        </mxCell>
        <mxCell id="0fqkN6X1GzrUGr9mEwJ8-242" value="1" style="text;html=1;align=center;verticalAlign=middle;resizable=0;points=[];autosize=1;strokeColor=none;fillColor=none;" vertex="1" parent="1">
          <mxGeometry x="2433.99" y="686" width="30" height="30" as="geometry" />
        </mxCell>
        <mxCell id="0fqkN6X1GzrUGr9mEwJ8-243" value="*" style="text;html=1;align=center;verticalAlign=middle;resizable=0;points=[];autosize=1;strokeColor=none;fillColor=none;" vertex="1" parent="1">
          <mxGeometry x="2397" y="551" width="30" height="30" as="geometry" />
        </mxCell>
        <mxCell id="0fqkN6X1GzrUGr9mEwJ8-244" value="" style="rounded=0;whiteSpace=wrap;html=1;fillColor=none;strokeColor=#b85450;gradientColor=none;" vertex="1" parent="1">
          <mxGeometry x="1516" y="200" width="540" height="220" as="geometry" />
        </mxCell>
        <mxCell id="0fqkN6X1GzrUGr9mEwJ8-245" value="&lt;b&gt;PRESENTATION&lt;/b&gt;" style="text;html=1;align=center;verticalAlign=middle;resizable=0;points=[];autosize=1;strokeColor=none;fillColor=none;" vertex="1" parent="1">
          <mxGeometry x="1936" y="203" width="120" height="30" as="geometry" />
        </mxCell>
        <mxCell id="0fqkN6X1GzrUGr9mEwJ8-246" value="" style="endArrow=open;endFill=1;endSize=12;html=1;rounded=0;" edge="1" parent="1">
          <mxGeometry width="160" relative="1" as="geometry">
            <mxPoint x="2686" y="788" as="sourcePoint" />
            <mxPoint x="2796" y="760" as="targetPoint" />
          </mxGeometry>
        </mxCell>
        <mxCell id="0fqkN6X1GzrUGr9mEwJ8-247" value="Controls" style="text;html=1;align=center;verticalAlign=middle;resizable=0;points=[];autosize=1;strokeColor=none;fillColor=none;" vertex="1" parent="1">
          <mxGeometry x="2731" y="774.33" width="70" height="30" as="geometry" />
        </mxCell>
        <mxCell id="0fqkN6X1GzrUGr9mEwJ8-248" value="Contact" style="swimlane;fontStyle=0;align=center;verticalAlign=top;childLayout=stackLayout;horizontal=1;startSize=26;horizontalStack=0;resizeParent=1;resizeLast=0;collapsible=1;marginBottom=0;rounded=0;shadow=0;strokeWidth=1;" vertex="1" parent="1">
          <mxGeometry x="2381" y="985" width="160" height="110" as="geometry">
            <mxRectangle x="40" y="40" width="160" height="26" as="alternateBounds" />
          </mxGeometry>
        </mxCell>
        <mxCell id="0fqkN6X1GzrUGr9mEwJ8-249" value="- Name : String" style="text;align=left;verticalAlign=top;spacingLeft=4;spacingRight=4;overflow=hidden;rotatable=0;points=[[0,0.5],[1,0.5]];portConstraint=eastwest;" vertex="1" parent="0fqkN6X1GzrUGr9mEwJ8-248">
          <mxGeometry y="26" width="160" height="26" as="geometry" />
        </mxCell>
        <mxCell id="0fqkN6X1GzrUGr9mEwJ8-250" value="- Phone Number : String" style="text;align=left;verticalAlign=top;spacingLeft=4;spacingRight=4;overflow=hidden;rotatable=0;points=[[0,0.5],[1,0.5]];portConstraint=eastwest;rounded=0;shadow=0;html=0;" vertex="1" parent="0fqkN6X1GzrUGr9mEwJ8-248">
          <mxGeometry y="52" width="160" height="26" as="geometry" />
        </mxCell>
        <mxCell id="0fqkN6X1GzrUGr9mEwJ8-251" value="- Email : String" style="text;align=left;verticalAlign=top;spacingLeft=4;spacingRight=4;overflow=hidden;rotatable=0;points=[[0,0.5],[1,0.5]];portConstraint=eastwest;rounded=0;shadow=0;html=0;" vertex="1" parent="0fqkN6X1GzrUGr9mEwJ8-248">
          <mxGeometry y="78" width="160" height="26" as="geometry" />
        </mxCell>
        <mxCell id="0fqkN6X1GzrUGr9mEwJ8-252" value="Supplier Card" style="swimlane;fontStyle=0;childLayout=stackLayout;horizontal=1;startSize=26;fillColor=none;horizontalStack=0;resizeParent=1;resizeParentMax=0;resizeLast=0;collapsible=1;marginBottom=0;whiteSpace=wrap;html=1;" vertex="1" parent="1">
          <mxGeometry x="2636" y="950" width="180" height="160" as="geometry">
            <mxRectangle x="40" y="200" width="110" height="30" as="alternateBounds" />
          </mxGeometry>
        </mxCell>
        <mxCell id="0fqkN6X1GzrUGr9mEwJ8-253" value="- Name : String" style="text;strokeColor=none;fillColor=none;align=left;verticalAlign=top;spacingLeft=4;spacingRight=4;overflow=hidden;rotatable=0;points=[[0,0.5],[1,0.5]];portConstraint=eastwest;whiteSpace=wrap;html=1;" vertex="1" parent="0fqkN6X1GzrUGr9mEwJ8-252">
          <mxGeometry y="26" width="180" height="26" as="geometry" />
        </mxCell>
        <mxCell id="0fqkN6X1GzrUGr9mEwJ8-254" value="- Address : String" style="text;strokeColor=none;fillColor=none;align=left;verticalAlign=top;spacingLeft=4;spacingRight=4;overflow=hidden;rotatable=0;points=[[0,0.5],[1,0.5]];portConstraint=eastwest;whiteSpace=wrap;html=1;" vertex="1" parent="0fqkN6X1GzrUGr9mEwJ8-252">
          <mxGeometry y="52" width="180" height="26" as="geometry" />
        </mxCell>
        <mxCell id="0fqkN6X1GzrUGr9mEwJ8-255" value="- Id : int&lt;br&gt;" style="text;strokeColor=none;fillColor=none;align=left;verticalAlign=top;spacingLeft=4;spacingRight=4;overflow=hidden;rotatable=0;points=[[0,0.5],[1,0.5]];portConstraint=eastwest;whiteSpace=wrap;html=1;" vertex="1" parent="0fqkN6X1GzrUGr9mEwJ8-252">
          <mxGeometry y="78" width="180" height="26" as="geometry" />
        </mxCell>
        <mxCell id="0fqkN6X1GzrUGr9mEwJ8-256" value="- Bank account : String" style="text;strokeColor=none;fillColor=none;align=left;verticalAlign=top;spacingLeft=4;spacingRight=4;overflow=hidden;rotatable=0;points=[[0,0.5],[1,0.5]];portConstraint=eastwest;whiteSpace=wrap;html=1;" vertex="1" parent="0fqkN6X1GzrUGr9mEwJ8-252">
          <mxGeometry y="104" width="180" height="26" as="geometry" />
        </mxCell>
        <mxCell id="0fqkN6X1GzrUGr9mEwJ8-257" value="- Payment way : PaymentWay" style="text;strokeColor=none;fillColor=none;align=left;verticalAlign=top;spacingLeft=4;spacingRight=4;overflow=hidden;rotatable=0;points=[[0,0.5],[1,0.5]];portConstraint=eastwest;whiteSpace=wrap;html=1;" vertex="1" parent="0fqkN6X1GzrUGr9mEwJ8-252">
          <mxGeometry y="130" width="180" height="30" as="geometry" />
        </mxCell>
        <mxCell id="0fqkN6X1GzrUGr9mEwJ8-258" value="" style="endArrow=classic;html=1;rounded=0;exitX=0;exitY=0.5;exitDx=0;exitDy=0;entryX=1;entryY=0.5;entryDx=0;entryDy=0;" edge="1" parent="1" source="0fqkN6X1GzrUGr9mEwJ8-255" target="0fqkN6X1GzrUGr9mEwJ8-249">
          <mxGeometry relative="1" as="geometry">
            <mxPoint x="2604" y="965" as="sourcePoint" />
            <mxPoint x="2534" y="966" as="targetPoint" />
            <Array as="points">
              <mxPoint x="2606" y="1030" />
              <mxPoint x="2566" y="1030" />
            </Array>
          </mxGeometry>
        </mxCell>
        <mxCell id="0fqkN6X1GzrUGr9mEwJ8-259" value="1, *" style="edgeLabel;resizable=0;html=1;align=right;verticalAlign=bottom;" connectable="0" vertex="1" parent="0fqkN6X1GzrUGr9mEwJ8-258">
          <mxGeometry x="1" relative="1" as="geometry">
            <mxPoint x="25" y="30" as="offset" />
          </mxGeometry>
        </mxCell>
        <mxCell id="0fqkN6X1GzrUGr9mEwJ8-260" value="Contains" style="edgeLabel;resizable=0;html=1;align=right;verticalAlign=bottom;" connectable="0" vertex="1" parent="1">
          <mxGeometry x="2610.9968716699573" y="1048.0028924090934" as="geometry" />
        </mxCell>
        <mxCell id="0fqkN6X1GzrUGr9mEwJ8-261" value="" style="endArrow=open;endFill=1;endSize=12;html=1;rounded=0;exitX=0.664;exitY=1.027;exitDx=0;exitDy=0;exitPerimeter=0;" edge="1" parent="1" source="0fqkN6X1GzrUGr9mEwJ8-276">
          <mxGeometry width="160" relative="1" as="geometry">
            <mxPoint x="2326" y="950" as="sourcePoint" />
            <mxPoint x="2506" y="980" as="targetPoint" />
          </mxGeometry>
        </mxCell>
        <mxCell id="0fqkN6X1GzrUGr9mEwJ8-262" value="1" style="text;html=1;align=center;verticalAlign=middle;resizable=0;points=[];autosize=1;strokeColor=none;fillColor=none;" vertex="1" parent="1">
          <mxGeometry x="2434" y="964" width="30" height="30" as="geometry" />
        </mxCell>
        <mxCell id="0fqkN6X1GzrUGr9mEwJ8-263" value="" style="endArrow=open;endFill=1;endSize=12;html=1;rounded=0;exitX=0;exitY=0;exitDx=0;exitDy=0;entryX=0;entryY=0.5;entryDx=0;entryDy=0;" edge="1" parent="1" target="0fqkN6X1GzrUGr9mEwJ8-229">
          <mxGeometry width="160" relative="1" as="geometry">
            <mxPoint x="2106" y="741" as="sourcePoint" />
            <mxPoint x="2516" y="600" as="targetPoint" />
            <Array as="points">
              <mxPoint x="2076" y="660" />
              <mxPoint x="2076" y="310" />
            </Array>
          </mxGeometry>
        </mxCell>
        <mxCell id="0fqkN6X1GzrUGr9mEwJ8-264" value="Creates" style="text;html=1;align=center;verticalAlign=middle;resizable=0;points=[];autosize=1;strokeColor=none;fillColor=none;" vertex="1" parent="1">
          <mxGeometry x="2098.99" y="679" width="70" height="30" as="geometry" />
        </mxCell>
        <mxCell id="0fqkN6X1GzrUGr9mEwJ8-265" value="1" style="text;html=1;align=center;verticalAlign=middle;resizable=0;points=[];autosize=1;strokeColor=none;fillColor=none;" vertex="1" parent="1">
          <mxGeometry x="2343.99" y="320" width="30" height="30" as="geometry" />
        </mxCell>
        <mxCell id="0fqkN6X1GzrUGr9mEwJ8-266" value="&lt;i&gt;Discount&lt;/i&gt;" style="swimlane;fontStyle=0;childLayout=stackLayout;horizontal=1;startSize=26;fillColor=none;horizontalStack=0;resizeParent=1;resizeParentMax=0;resizeLast=0;collapsible=1;marginBottom=0;whiteSpace=wrap;html=1;" vertex="1" parent="1">
          <mxGeometry x="2111" y="1070" width="140" height="52" as="geometry" />
        </mxCell>
        <mxCell id="0fqkN6X1GzrUGr9mEwJ8-267" value="- Size : double" style="text;strokeColor=none;fillColor=none;align=left;verticalAlign=top;spacingLeft=4;spacingRight=4;overflow=hidden;rotatable=0;points=[[0,0.5],[1,0.5]];portConstraint=eastwest;whiteSpace=wrap;html=1;" vertex="1" parent="0fqkN6X1GzrUGr9mEwJ8-266">
          <mxGeometry y="26" width="140" height="26" as="geometry" />
        </mxCell>
        <mxCell id="0fqkN6X1GzrUGr9mEwJ8-268" value="" style="endArrow=open;endFill=1;endSize=12;html=1;rounded=0;entryX=0;entryY=0;entryDx=0;entryDy=0;" edge="1" parent="1" target="0fqkN6X1GzrUGr9mEwJ8-266">
          <mxGeometry width="160" relative="1" as="geometry">
            <mxPoint x="2126" y="900" as="sourcePoint" />
            <mxPoint x="2136" y="1000" as="targetPoint" />
            <Array as="points" />
          </mxGeometry>
        </mxCell>
        <mxCell id="0fqkN6X1GzrUGr9mEwJ8-269" value="1" style="text;html=1;align=center;verticalAlign=middle;resizable=0;points=[];autosize=1;strokeColor=none;fillColor=none;" vertex="1" parent="1">
          <mxGeometry x="2103.99" y="955.3" width="30" height="30" as="geometry" />
        </mxCell>
        <mxCell id="0fqkN6X1GzrUGr9mEwJ8-270" value="1" style="text;html=1;align=center;verticalAlign=middle;resizable=0;points=[];autosize=1;strokeColor=none;fillColor=none;" vertex="1" parent="1">
          <mxGeometry x="2078.99" y="1092" width="30" height="30" as="geometry" />
        </mxCell>
        <mxCell id="0fqkN6X1GzrUGr9mEwJ8-271" value="Creates" style="text;html=1;align=center;verticalAlign=middle;resizable=0;points=[];autosize=1;strokeColor=none;fillColor=none;" vertex="1" parent="1">
          <mxGeometry x="2168.99" y="935.33" width="70" height="30" as="geometry" />
        </mxCell>
        <mxCell id="0fqkN6X1GzrUGr9mEwJ8-272" value="" style="edgeStyle=orthogonalEdgeStyle;rounded=0;orthogonalLoop=1;jettySize=auto;html=1;entryX=0.942;entryY=1.043;entryDx=0;entryDy=0;entryPerimeter=0;exitX=0.395;exitY=0.012;exitDx=0;exitDy=0;exitPerimeter=0;" edge="1" parent="1" source="0fqkN6X1GzrUGr9mEwJ8-281" target="0fqkN6X1GzrUGr9mEwJ8-165">
          <mxGeometry relative="1" as="geometry">
            <Array as="points">
              <mxPoint x="2583" y="680" />
              <mxPoint x="2576" y="680" />
              <mxPoint x="2576" y="640" />
              <mxPoint x="2260" y="640" />
            </Array>
            <mxPoint x="2556" y="700" as="sourcePoint" />
            <mxPoint x="2376" y="680" as="targetPoint" />
          </mxGeometry>
        </mxCell>
        <mxCell id="0fqkN6X1GzrUGr9mEwJ8-273" value="Order Controller" style="swimlane;fontStyle=0;childLayout=stackLayout;horizontal=1;startSize=26;fillColor=none;horizontalStack=0;resizeParent=1;resizeParentMax=0;resizeLast=0;collapsible=1;marginBottom=0;whiteSpace=wrap;html=1;" vertex="1" parent="1">
          <mxGeometry x="2246" y="716" width="250" height="240" as="geometry" />
        </mxCell>
        <mxCell id="0fqkN6X1GzrUGr9mEwJ8-274" value="+createNewMissingItemsOrder():&lt;br&gt;LinkedList&amp;lt;Order&amp;gt;" style="text;strokeColor=none;fillColor=none;align=left;verticalAlign=top;spacingLeft=4;spacingRight=4;overflow=hidden;rotatable=0;points=[[0,0.5],[1,0.5]];portConstraint=eastwest;whiteSpace=wrap;html=1;" vertex="1" parent="0fqkN6X1GzrUGr9mEwJ8-273">
          <mxGeometry y="26" width="250" height="34" as="geometry" />
        </mxCell>
        <mxCell id="0fqkN6X1GzrUGr9mEwJ8-275" value="+createNewPeriodicReport(int&lt;font color=&quot;#000080&quot;&gt;&lt;b&gt;&amp;nbsp;&lt;br&gt;&lt;/b&gt;&lt;/font&gt;&lt;span style=&quot;background-color: rgb(255, 255, 255); font-family: &amp;quot;JetBrains Mono&amp;quot;, monospace; font-size: 9.8pt;&quot;&gt;suppId,LinkedList&amp;lt;Pair&amp;lt;Integer, Integer&amp;gt;&amp;gt; items):PeriodicReport&lt;/span&gt;" style="text;strokeColor=none;fillColor=none;align=left;verticalAlign=top;spacingLeft=4;spacingRight=4;overflow=hidden;rotatable=0;points=[[0,0.5],[1,0.5]];portConstraint=eastwest;whiteSpace=wrap;html=1;" vertex="1" parent="0fqkN6X1GzrUGr9mEwJ8-273">
          <mxGeometry y="60" width="250" height="60" as="geometry" />
        </mxCell>
        <mxCell id="0fqkN6X1GzrUGr9mEwJ8-276" value="+createNewPeriodicOrder(int&lt;span style=&quot;font-family: &amp;quot;JetBrains Mono&amp;quot;, monospace; font-size: 9.8pt; color: rgb(0, 0, 128); font-weight: bold;&quot;&gt;&amp;nbsp;&lt;/span&gt;suppId, LinkedList&amp;lt;Pair&amp;lt;Integer, Integer&amp;gt;&amp;gt; items):Order&lt;br&gt;+&lt;span style=&quot;background-color: rgb(255, 255, 255); font-family: &amp;quot;JetBrains Mono&amp;quot;, monospace; font-size: 9.8pt;&quot;&gt;updateReport (int&amp;nbsp;&lt;/span&gt;&lt;span style=&quot;background-color: rgb(255, 255, 255); font-family: &amp;quot;JetBrains Mono&amp;quot;, monospace; font-size: 9.8pt;&quot;&gt;reportNumber,int&amp;nbsp;&lt;br&gt;&lt;/span&gt;&lt;span style=&quot;background-color: rgb(255, 255, 255); font-family: &amp;quot;JetBrains Mono&amp;quot;, monospace; font-size: 9.8pt;&quot;&gt;catalogNumber,int&amp;nbsp;&lt;/span&gt;&lt;span style=&quot;background-color: rgb(255, 255, 255); font-family: &amp;quot;JetBrains Mono&amp;quot;, monospace; font-size: 9.8pt;&quot;&gt;newAmount):&lt;br&gt;boolean&lt;br&gt;&lt;/span&gt;" style="text;strokeColor=none;fillColor=none;align=left;verticalAlign=top;spacingLeft=4;spacingRight=4;overflow=hidden;rotatable=0;points=[[0,0.5],[1,0.5]];portConstraint=eastwest;whiteSpace=wrap;html=1;" vertex="1" parent="0fqkN6X1GzrUGr9mEwJ8-273">
          <mxGeometry y="120" width="250" height="120" as="geometry" />
        </mxCell>
        <mxCell id="0fqkN6X1GzrUGr9mEwJ8-277" value="Supplier Controller" style="swimlane;fontStyle=0;childLayout=stackLayout;horizontal=1;startSize=26;fillColor=none;horizontalStack=0;resizeParent=1;resizeParentMax=0;resizeLast=0;collapsible=1;marginBottom=0;whiteSpace=wrap;html=1;" vertex="1" parent="1">
          <mxGeometry x="2056" y="742" width="180" height="150" as="geometry" />
        </mxCell>
        <mxCell id="0fqkN6X1GzrUGr9mEwJ8-278" value="+addSupplierItemToSupplier&lt;br&gt;(Supplier sup,...):void" style="text;strokeColor=none;fillColor=none;align=left;verticalAlign=top;spacingLeft=4;spacingRight=4;overflow=hidden;rotatable=0;points=[[0,0.5],[1,0.5]];portConstraint=eastwest;whiteSpace=wrap;html=1;" vertex="1" parent="0fqkN6X1GzrUGr9mEwJ8-277">
          <mxGeometry y="26" width="180" height="44" as="geometry" />
        </mxCell>
        <mxCell id="0fqkN6X1GzrUGr9mEwJ8-279" value="+AddOrderDiscount(Supplier sup...):void" style="text;strokeColor=none;fillColor=none;align=left;verticalAlign=top;spacingLeft=4;spacingRight=4;overflow=hidden;rotatable=0;points=[[0,0.5],[1,0.5]];portConstraint=eastwest;whiteSpace=wrap;html=1;" vertex="1" parent="0fqkN6X1GzrUGr9mEwJ8-277">
          <mxGeometry y="70" width="180" height="40" as="geometry" />
        </mxCell>
        <mxCell id="0fqkN6X1GzrUGr9mEwJ8-280" value="+showSupplierOrders(Supplier sup):void" style="text;strokeColor=none;fillColor=none;align=left;verticalAlign=top;spacingLeft=4;spacingRight=4;overflow=hidden;rotatable=0;points=[[0,0.5],[1,0.5]];portConstraint=eastwest;whiteSpace=wrap;html=1;" vertex="1" parent="0fqkN6X1GzrUGr9mEwJ8-277">
          <mxGeometry y="110" width="180" height="40" as="geometry" />
        </mxCell>
        <mxCell id="0fqkN6X1GzrUGr9mEwJ8-281" value="Admin Controller" style="swimlane;fontStyle=0;childLayout=stackLayout;horizontal=1;startSize=26;fillColor=none;horizontalStack=0;resizeParent=1;resizeParentMax=0;resizeLast=0;collapsible=1;marginBottom=0;whiteSpace=wrap;html=1;" vertex="1" parent="1">
          <mxGeometry x="2516" y="686" width="170" height="220" as="geometry" />
        </mxCell>
        <mxCell id="0fqkN6X1GzrUGr9mEwJ8-282" value="+addNewSupplier(String name,..):void" style="text;strokeColor=none;fillColor=none;align=left;verticalAlign=top;spacingLeft=4;spacingRight=4;overflow=hidden;rotatable=0;points=[[0,0.5],[1,0.5]];portConstraint=eastwest;whiteSpace=wrap;html=1;" vertex="1" parent="0fqkN6X1GzrUGr9mEwJ8-281">
          <mxGeometry y="26" width="170" height="34" as="geometry" />
        </mxCell>
        <mxCell id="0fqkN6X1GzrUGr9mEwJ8-283" value="+addNewBranch(String address)" style="text;strokeColor=none;fillColor=none;align=left;verticalAlign=top;spacingLeft=4;spacingRight=4;overflow=hidden;rotatable=0;points=[[0,0.5],[1,0.5]];portConstraint=eastwest;whiteSpace=wrap;html=1;" vertex="1" parent="0fqkN6X1GzrUGr9mEwJ8-281">
          <mxGeometry y="60" width="170" height="40" as="geometry" />
        </mxCell>
        <mxCell id="0fqkN6X1GzrUGr9mEwJ8-284" value="+getAllOrdersInSystem():&lt;br&gt;LinkedList&amp;lt;Order&amp;gt;&lt;br&gt;+getAllSuppliersInSystem():&lt;br&gt;LinkedList&amp;lt;Supplier&amp;gt;&lt;br&gt;+getAllOrdersOfBranch(int&lt;br&gt;&lt;span style=&quot;background-color: rgb(255, 255, 255); font-family: &amp;quot;JetBrains Mono&amp;quot;, monospace; font-size: 9.8pt;&quot;&gt;branchNumber):&lt;/span&gt;LinkedList&lt;br&gt;&amp;lt;Order&amp;gt;" style="text;strokeColor=none;fillColor=none;align=left;verticalAlign=top;spacingLeft=4;spacingRight=4;overflow=hidden;rotatable=0;points=[[0,0.5],[1,0.5]];portConstraint=eastwest;whiteSpace=wrap;html=1;" vertex="1" parent="0fqkN6X1GzrUGr9mEwJ8-281">
          <mxGeometry y="100" width="170" height="120" as="geometry" />
        </mxCell>
        <mxCell id="0fqkN6X1GzrUGr9mEwJ8-285" value="" style="endArrow=open;endFill=1;endSize=12;html=1;rounded=0;entryX=1.011;entryY=0.913;entryDx=0;entryDy=0;entryPerimeter=0;" edge="1" parent="1" target="0fqkN6X1GzrUGr9mEwJ8-276">
          <mxGeometry width="160" relative="1" as="geometry">
            <mxPoint x="2540" y="910" as="sourcePoint" />
            <mxPoint x="2652.7300000000005" y="922.7400000000001" as="targetPoint" />
          </mxGeometry>
        </mxCell>
      </root>
    </mxGraphModel>
  </diagram>
</mxfile>
